<svg id="katman_1" data-name="katman 1" xmlns="http://www.w3.org/2000/svg" viewBox="0 0 1533.92 296.82"><defs><style>.cls-1{fill:#ffce34;}</style></defs><path d="M648.07,39.28c-.93.7-1.62,12.28-1.62,25.26V88.4l8.8.7,8.58.69L665,211.44l1.15,121.65,27.35.69,27.11.7V44.84l-5.1-3.47c-4.17-3-11.82-3.71-35.69-3.71C663.13,37.66,648.77,38.35,648.07,39.28Z" transform="translate(-194.61 -37.66)"/><path d="M771.57,63.15V88.63H829c49.81,0,58.39.47,65.34,4.18,17.61,8.57,20.85,31.28,6.49,46.11-10.2,10.89-23.17,17.14-56.31,27.34-45.88,14.36-63,25.72-74.61,49.35l-6.49,13.21V333.09l98,.69,97.78.47v-51l-65.35-.46-65.57-.7-.69-18.53c-.47-10.2,0-20.86.69-23.64,1.85-7.41,16.45-15.06,51.9-27.11,56.31-19.23,68.13-26.41,78.32-47,6-12.28,6.49-15.52,6.49-40.08,0-23.87-.7-28-6-39.39-11.13-23.64-27.35-38-50.75-44.95-10-3-24.56-3.71-74.61-3.71h-62.1Z" transform="translate(-194.61 -37.66)"/><path d="M1003.28,62.92V88.4l65.58.7c57.92.69,66.27,1.16,71.83,4.86,9,6,13.9,14.37,13.9,25s-5.33,19.23-16.92,26.88c-7.41,5.09-9.73,5.33-56.07,5.33h-48.43l.7,24.79.69,25,48.89,1.16,48.89,1.16,8.35,6.49c11.35,8.57,16,18.07,16.22,34.06.23,11.12-.7,14.6-6,21.78-12.74,16.68-11.58,16.45-83.18,17.15l-64.42.69v50.75h77.16c92.45,0,94.77-.47,115.16-20.39,21.09-20.86,28.73-48,23.17-81.8-3.7-22.47-9-34.29-20.39-45.41l-9.5-9,7.88-4.17c16.45-8.8,23.63-29.43,21.32-60.94-2.09-29.66-16.69-52.13-40.55-63.26-20.62-9.73-36.84-11.58-107.52-11.58h-66.73Z" transform="translate(-194.61 -37.66)"/><path d="M1258.16,186V334.48l29.66-.7,29.43-.69.69-54,.47-53.76h30.35c29.89,0,30.36,0,36.61,6.26,4.4,4.63,10.66,18.77,20.86,48.2,8.11,22.94,16.22,44.48,18.07,48l3.24,6.49h31c29.66,0,34.06-.93,29.2-5.8-1.16-1.39-8.58-22.47-16.45-47-8.35-25.26-17.85-50.28-22.25-57.7-4.4-6.95-7.88-13.67-7.88-14.83s3-3.47,6.72-5.33c10-5.33,22.71-21.31,27.35-34.75,3-9,3.93-19.24,3.93-43.1,0-38.23-4.63-52.6-21.54-69.51-18.08-18.08-20.86-18.54-116.55-18.54h-83Zm152.7-89c16.68,13.9,14.6,51.2-3.48,65.57-5.79,4.63-9,4.87-47.5,4.87h-41.47V130.81c0-20.16.69-37.54,1.62-38.24.69-.92,19.93-1.62,42.63-1.62C1403.45,91,1403.91,91,1410.86,97Z" transform="translate(-194.61 -37.66)"/><path d="M1558.69,40.9c-15.52,5.56-26.18,14.37-32,26.19l-5.57,11.12V333.09l29.43.69,29.66.7.46-60.94.7-60.94,66.73-.7,66.5-.46V158.15l-66.5-.47L1581.4,157l-.7-24.33c-.69-26.65,1.39-35.22,10.2-39.16,3.94-1.62,27.57-2.55,71.6-2.55h66V37.66h-80.4C1586.26,37.89,1565.41,38.59,1558.69,40.9Z" transform="translate(-194.61 -37.66)"/><path class="cls-1" d="M275.71,43.68A57.42,57.42,0,0,0,262,52.26c-6,5.56-16.45,25.95-16.45,32.44,0,7.64-7.65,15.75-20.85,22.47-7.19,3.71-16.92,10.89-21.55,16l-8.58,9.5v86.66c0,86,0,86.43,5.33,94.31a57.46,57.46,0,0,0,13,13l7.88,5.33H531.29l10-5.79a35.56,35.56,0,0,0,14.6-15.76c4.63-9.5,4.87-13.44,4.87-90.37,0-87.81-.47-90.59-13.21-101.48-3.71-3.25-12.75-8.81-19.93-12.29-12.74-6.48-20.16-16-20.16-25.48,0-8.58-11.81-27.11-21.31-33.14l-9.74-6.49-96.16-.46C298,40.21,282.66,40.67,275.71,43.68ZM469,59.44c11.58,4.87,17.15,12.28,22.24,29.19,6,20.16,9.27,24.33,25.95,32.68,7.65,3.94,16.46,9.5,19.47,12.51l5.56,5.56v80.17c0,88.28,0,88.75-14.37,93.61-3.94,1.39-14.59,2.55-23.86,2.55H487.26l-10.42-13.44c-5.8-7.41-15.53-16.68-21.55-20.85L444.17,274H308.85l-9,6.49c-9.73,7.18-31.05,29.89-31.05,33.14,0,3.7-36.61,2.31-44-1.39-14.14-7.19-13.91-6.49-13.91-91.07,0-90.13-.92-86.42,22.71-98.24,17.38-8.81,24.79-16.92,28.27-30.36,1.39-5.33,3.71-12.74,5.1-16.22,2.78-6.95,13.9-16.68,21.55-18.53,2.55-.47,42.4-1.16,88.74-1.39C444.17,56.2,462.7,56.89,469,59.44Z" transform="translate(-194.61 -37.66)"/><path class="cls-1" d="M362.14,114.12c-54,11.13-74.38,76.93-35.68,115.63,13.2,13.2,26.41,19.23,44.72,20.62,22,1.62,36.38-3.94,53.29-20.62,16.22-16,21.78-31.52,19.7-54.69A68.41,68.41,0,0,0,362.14,114.12Z" transform="translate(-194.61 -37.66)"/></svg>