<?xml version="1.0" encoding="utf-8"?>
<!-- Generator: Adobe Illustrator 18.0.0, SVG Export Plug-In . SVG Version: 6.00 Build 0)  -->
<!DOCTYPE svg PUBLIC "-//W3C//DTD SVG 1.1//EN" "http://www.w3.org/Graphics/SVG/1.1/DTD/svg11.dtd">
<svg version="1.1" id="Layer_1" xmlns="http://www.w3.org/2000/svg" xmlns:xlink="http://www.w3.org/1999/xlink" x="0px" y="0px"
	 viewBox="0 0 2000 427" enable-background="new 0 0 2000 427" xml:space="preserve">
<g>
	<path d="M70,428c-9.2-3.3-19-5.5-27.5-10.1C17.3,404.6,5,382.5,1.9,354.8c-0.3-2.3-0.2-4.7-0.2-7c0-89.1-0.3-178.3,0.2-267.4
		C2,48.8,16.6,24.8,45,10.2c11-5.7,23-8.6,35.6-8.6c94.8,0.1,189.6,0,284.4,0c44.1,0,78.9,34.5,79,78.6
		c0.1,89.8,0.3,179.6-0.1,269.4c-0.2,31.4-15,55.2-43,69.8c-7.7,4-16.6,5.7-24.9,8.5C274,428,172,428,70,428z M221.1,163.3
		c0-10,0-19.1,0-28.2c0-10.2,0-10.6-10.1-13.3c-17.3-4.6-34.9-4.7-52.6-3.2c-10.2,0.9-19.8,4-28.8,9.1
		c-32.6,18.4-35.6,66.5-5.4,88.6c5.9,4.3,12.4,7.9,18.9,11.1c10.9,5.3,22.2,10,33.2,15c1.8,0.8,3.5,2,5.1,3.1
		c6.5,4.4,10,10.5,8.3,18.4c-1.6,7.8-7.7,11.6-14.9,13c-22.9,4.5-44.3-0.4-64.6-11.2c-1.8-1-3.7-1.9-6.2-3.1
		c-0.2,2.6-0.4,4.2-0.4,5.8c0,9.7,0.2,19.3-0.1,29c-0.1,4.7,1.7,7.2,6.1,8.8c22.9,8.7,46.4,10.3,70.3,6.5
		c17.4-2.8,32.3-10.6,42.6-25.4c17.4-24.9,9.6-60.1-17.3-76.6c-9.6-5.9-20.3-9.8-30.5-14.8c-8.3-4.1-17-7.8-24.7-12.9
		c-10.6-7.1-9.1-20.7,2.6-26c3.1-1.4,6.6-2.5,10-3c14.5-1.8,28.9-1,43,3.3C210.6,158.9,215.2,161,221.1,163.3z M303.7,123.5
		c-11.8,1.4-23.3,2.7-34.8,4.4c-1.5,0.2-3.5,3-3.8,4.8c-1.2,9.7-2.1,19.5-2.8,29.3c-0.2,3.3-1.3,4.4-4.5,4.2
		c-3.8-0.2-7.7,0-11.5-0.1c-2.8,0-4.4,0.8-4.3,4c0.1,8.7,0.1,17.3,0,26c0,3,1.2,4.2,4.2,4.1c3.5-0.1,7,0.2,10.5-0.1
		c3.8-0.3,5.3,0.8,5.2,5c-0.3,10.3-0.1,20.7-0.1,31c0.1,14.3-0.3,28.7,0.4,43c0.7,15.1,7,27,22.3,32.3c14.5,5.1,28.9,3.4,43.2-0.9
		c1.3-0.4,2.7-2.6,2.8-4c0.3-7.5,0.1-15,0.2-22.5c0-2.6-1.2-3.4-3.8-3.2c-3.5,0.3-7,0.5-10.5,0.3c-8.6-0.5-12.2-4.1-13.2-12.7
		c-0.2-2-0.3-4-0.3-6c0-19,0-38,0-57c0-1.6,0.2-3.2,0.3-5.2c7.9,0,15.4-0.2,22.8,0.1c4.4,0.2,6.3-1,6-5.8c-0.4-7.5-0.3-15,0-22.5
		c0.2-4.6-1.3-6.2-6-6c-7.4,0.3-14.9,0.1-22.3,0.1C303.7,151.9,303.7,138.1,303.7,123.5z"/>
	<path d="M811.8,167.2c0-2.5,0-4.3,0-6.1c0-14.7,0.2-29.3-0.1-44c-0.1-5,1.6-6.3,6.3-6.1c8.2,0.3,16.3,0.1,24.5,0.1
		c7.4,0,7.4,0,7.4,7.2c0,47.8-0.1,95.7,0,143.5c0,10.3,0.7,20.6,0.7,31c0,1.7-1.2,4.4-2.5,5c-24.3,9.5-49.3,14.5-75.3,8.2
		c-30.1-7.3-47.2-27.9-49.5-58.8c-3.3-43.8,25.5-77.1,69.4-79.9C798.8,166.9,805,167.2,811.8,167.2z M812.1,237.4
		c0-11-0.2-22,0.1-33c0.1-3.9-1.3-5.1-5.1-5.5c-20.6-2.4-45.7,9.7-44.3,40.8c1.1,25.2,17.8,39.3,44.4,35.9c3.4-0.4,5.2-1.7,5-5.7
		C811.9,259,812.1,248.2,812.1,237.4z"/>
	<path d="M1067,169.8c13.9-3.4,27-4.2,40.1-1.3c28.4,6.3,47.4,29.7,48.9,59.3c2.4,47.3-30.2,73.2-66.7,79c-18.5,3-36.8,0.5-54.9-4.2
		c-3.7-1-5-2.9-5-6.7c0.1-60,0.1-119.9,0-179.9c0-3.7,1.1-5,4.9-4.9c9.2,0.2,18.3,0.2,27.5,0c4.2-0.1,5.4,1.5,5.3,5.5
		c-0.2,15.7-0.1,31.3-0.1,47C1067,165.6,1067,167.4,1067,169.8z M1067.2,275.8c1.7,0.4,3,0.8,4.3,1c15.9,2.4,32.1-4.6,39.9-17.3
		c8.3-13.6,7.8-36.1-1-48c-7.9-10.6-29.4-16.3-41-10.5c-1,0.5-2,2.2-2,3.4C1067.2,228,1067.2,251.6,1067.2,275.8z"/>
	<path d="M718.4,306.1c-13.2,0-25.3,0.1-37.4-0.2c-1.3,0-3.1-2.3-3.6-3.9c-4.2-11.6-8.2-23.2-12-35c-1.1-3.3-2.6-4.3-6-4.3
		c-18.2,0.2-36.3,0.2-54.5,0c-3.5,0-4.9,1.1-6,4.4c-3.5,11.4-7.5,22.8-11.1,34.2c-1,3.2-2.7,4.5-6.1,4.4c-8.7-0.2-17.3,0-26-0.1
		c-5.9,0-6.2-0.4-4.2-6c15.3-44.2,30.8-88.3,46-132.6c4.2-12.4,10.3-24.3,10.5-37.9c0-1,2.3-2.8,3.5-2.8c13.5-0.2,27-0.3,40.5,0.1
		c1.7,0,4,2.6,4.7,4.5c9.9,27.6,19.7,55.2,29.4,82.8c10.2,28.7,20.3,57.4,30.5,86.2C717.1,301.6,717.6,303.3,718.4,306.1z
		 M610.7,228.6c14.3,0,28.1,0,42.4,0c-7.2-23.3-14.3-46.1-21.6-69.5C624.5,182.5,617.7,205.4,610.7,228.6z"/>
	<path d="M1907.5,225c7.4-8.7,14.8-17.4,22.1-26.2c6.8-8.2,13.6-16.5,20.2-24.8c2.3-3,4.9-4.5,8.9-4.4c9.8,0.3,19.7,0.1,29.5,0.1
		c1.6,0,3.2,0.3,4.7,0.4c0.3,0.5,0.6,0.9,0.9,1.4c-17.7,19.7-35.3,39.4-53.4,59.7c20.1,24.6,40.1,49,60.9,74.3
		c-2.7,0.2-4.3,0.5-5.8,0.5c-12.5,0-25-0.1-37.5,0.1c-3.6,0.1-5.8-1.2-7.9-4c-13.3-17.7-26.8-35.3-40.3-52.9c-0.8-1-1.6-1.9-3.5-3.9
		c0,3.1,0,4.8,0,6.6c0,16-0.1,32,0.1,48c0.1,4.7-1.5,6.1-6.1,6c-8.7-0.3-17.3-0.4-26,0c-5.3,0.3-6.3-1.8-6.3-6.7
		c0.2-46.5,0.1-93,0.1-139.5c0-14.2,0.2-28.3-0.1-42.5c-0.1-4.7,1.5-6.1,6.1-5.9c8.7,0.3,17.3,0.3,26,0c4.8-0.2,6.3,1.4,6.3,6.3
		c-0.2,34-0.1,68-0.1,102c0,1.7,0,3.5,0,5.2C1906.7,224.8,1907.1,224.9,1907.5,225z"/>
	<path d="M1370.8,259.4c2.5,1.3,4.1,2.2,5.8,3.1c17.3,9.5,35.7,13.8,55.3,11.5c5-0.6,10.4-2.8,14.4-5.8c7.1-5.5,7.4-14.9,0.6-20.9
		c-5.2-4.5-11.4-8-17.6-11.1c-11.4-5.8-23.5-10.3-34.7-16.5c-19.5-10.8-27.2-28.3-24.5-50c2.7-21.9,16.1-35.6,36.3-42.2
		c21.2-7,42.8-5.3,64.1-0.1c9.2,2.2,9.2,3.1,9.2,12.5c0,7.2,0,14.3,0,21.5c0,1.6-0.2,3.2-0.4,5.6c-2.8-1.2-4.8-2.2-6.9-3
		c-15.4-6.2-31.3-7.7-47.6-5.5c-4.6,0.6-9.3,2.7-13.2,5.4c-6.8,4.8-7.2,14.4-1.1,20c3.3,3,7,5.7,11,7.6c10.5,5.1,21.3,9.4,31.8,14.5
		c5.2,2.5,10.3,5.6,14.9,9c17.1,12.6,23.6,30,20,50.5c-3.5,20.7-17.1,33.5-36.6,38.9c-25.5,7.1-51.1,6.2-76-3.8
		c-4.2-1.7-5.9-4.1-5.7-8.6c0.3-9,0.1-18,0.1-27C1370.3,263.5,1370.6,261.9,1370.8,259.4z"/>
	<path d="M1726.2,238.6c-0.8,24.6-8.8,45.9-30.3,59.8c-42.4,27.3-95.4,3.6-103.8-46.6c-4.8-28.5,2.4-53.6,26.2-71.5
		c21.5-16.2,46-17.8,70.1-7.3c24.3,10.5,34.9,31.6,37.5,57.2c0.2,2,0.2,4,0.3,6C1726.3,236.9,1726.2,237.7,1726.2,238.6z
		 M1629.8,237c-0.5,0.1-0.9,0.2-1.4,0.4c2.2,8.1,3.4,16.6,6.7,24.3c4.2,9.9,12.5,15.4,23.7,15.5c10.9,0.1,19.2-4.7,23.7-14.4
		c7.4-16.1,7.4-32.6,0.6-49c-4.4-10.5-13.1-14.8-23.9-15c-10.5-0.2-18.6,4.3-23.8,13.7C1631.2,220.1,1629.5,228.3,1629.8,237z"/>
	<path d="M871.5,238.5c0.9-56.7,50.4-84,96.7-66.2c13.1,5,23.1,14.6,29.5,27.2c11.3,22.1,12.7,45,3.7,68.1
		c-12.3,31.8-43.2,46.5-77.3,39.9c-29.6-5.8-48.8-28.7-52.1-61C871.8,243.5,871.7,240.5,871.5,238.5z M970,236.6
		c-2.3-8.3-3.3-16.6-6.7-23.8c-8.5-18.1-35.4-19.6-45.6-2.4c-10.7,17.9-10,36.7,0.3,54.7c5.3,9.3,14.5,13,25.2,11.9
		c9.8-1,17.2-6.2,20.5-15.3C966.6,253.7,967.9,245.1,970,236.6z"/>
	<path d="M1210.4,247.6c1.1,13.2,10,23.5,23,26.7c15.3,3.8,30.4,1.8,45.3-2.9c1.7-0.5,3.3-1.2,5.9-2c0,10,0.2,19.3-0.2,28.5
		c-0.1,1.3-2.5,3.2-4.1,3.7c-8,2.2-16,4.8-24.2,5.8c-13.9,1.7-28,1.6-41.6-2.8c-20.8-6.7-33.9-21.2-40.1-41.8
		c-6.6-22.1-4.3-43.6,6.4-63.9c12.1-23,35.4-34.2,62.2-32.3c30.3,2.2,47.6,22.6,51.2,48.4c1.1,8.3,0.3,16.9,0.4,25.4
		c0,4.6-2.3,6.3-6.9,6.4c-23.6,0.2-47.3,0.6-70.9,1C1214.7,247.7,1212.7,247.6,1210.4,247.6z M1210.5,220.8c16.6,0,32.8,0,49,0
		c1.6-10.7-6.6-21.7-17.2-23.4C1226,194.9,1213.1,204.1,1210.5,220.8z"/>
	<path d="M1554.9,169.2c7.6,0,15,0.1,22.5,0c3.4-0.1,4.8,1,4.7,4.6c-0.2,7.5-0.2,15,0,22.5c0.1,3.7-1.1,5-4.9,4.9
		c-7.3-0.2-14.6-0.1-22.3-0.1c-0.1,2-0.3,3.6-0.3,5.2c0,17.8,0,35.7,0,53.5c0,1.3,0,2.7,0.1,4c0.8,10.2,5.9,14.7,16.1,13.9
		c2.8-0.2,5.6-0.7,8.8-1.1c0,8.6,0.2,16.9-0.2,25.1c-0.1,1.4-2.2,3.5-3.7,3.9c-13.6,3.8-27.3,5.1-40.8,0
		c-11.7-4.4-17.1-13.8-18.8-25.6c-0.6-4.3-0.8-8.6-0.8-13c-0.1-19.8,0-39.7,0-59.5c0-2,0-3.9,0-6.5c-5.2,0-9.8-0.1-14.4,0
		c-3,0.1-4.2-1.1-4.1-4.1c0.1-7.8,0.1-15.7,0-23.5c-0.1-3.4,1.5-4.3,4.6-4.3c4.6,0.1,9.3,0,14.3,0c0.7-9,1.4-17.6,2.1-26.1
		c0.1-1.5,0.5-3,0.6-4.4c0.3-3.7,2.4-5,5.9-5.4c10.1-1.2,20.1-2.6,30.6-3.9C1554.9,142.4,1554.9,155.3,1554.9,169.2z"/>
	<path d="M1845.9,201.9c-9.5-1-17.7-2.4-25.9-2.6c-5-0.1-10.3,0.9-15.2,2.3c-14.8,4.4-22.9,14.6-24.5,30c-2.2,21.8,8.5,37.3,29.6,42
		c5.1,1.1,10.6,1.5,15.9,1.3c6.6-0.2,13.2-1.2,20.3-2c0,9.3,0.3,18.9-0.3,28.5c-0.1,1.6-3.4,3.7-5.6,4.3
		c-13.7,3.7-27.6,4.2-41.6,1.9c-31.9-5.3-54.4-30.4-56.6-62.7c-2.8-42.4,25.6-75.2,68.1-77.7c9.7-0.6,19.6,0.4,29.4,1
		c4.6,0.3,6.9,2.8,6.6,8C1845.6,184.8,1845.9,193.4,1845.9,201.9z"/>
</g>
</svg>
