<svg id="Layer_1" data-name="Layer 1" xmlns="http://www.w3.org/2000/svg" viewBox="0 0 1695.84 362.06"><defs><style>.cls-1{fill:#fff;}</style></defs><path class="cls-1" d="M112.08,720.53V358.47H1807.92V720.53Zm188.19-.88c40.53,0,81.07-.08,121.6.05a62.23,62.23,0,0,0,28.95-7c23.76-12.3,36.45-32.37,36.6-59,.43-76.12.25-152.25.11-228.37-.07-37.07-29.66-66.25-66.74-66.26q-120.54,0-241.08,0a65.47,65.47,0,0,0-30.2,7.19c-24.27,12.4-36.6,32.81-36.74,59.69-.38,75.28-.13,150.55-.12,225.83,0,2.25.06,4.51.21,6.76,2.29,33.6,31.73,61.13,65.39,61.14Q239.27,719.67,300.27,719.65ZM799.21,499c-5.14,0-9.65-.2-14.13,0-16,.81-30.53,5.81-42.37,16.89-17.27,16.17-21.52,36.5-17.31,58.91,4.1,21.81,17.56,35.48,38.89,41.2,22.68,6.08,44.51,1.78,65.82-6.5,1.1-.43,2-2.8,2-4.26,0-6.76-.62-13.52-.63-20.27q-.1-63.45,0-126.88c0-1.13.37-2.45-.1-3.33-.64-1.2-1.89-2.91-2.92-2.93q-13.12-.34-26.26,0c-1,0-2.76,1.81-2.86,2.9-.36,3.77-.15,7.6-.15,11.41Zm216.3,1v-3.88c0-13.24-.11-26.48.07-39.72,0-3.55-1.19-4.67-4.65-4.58-7.61.19-15.24.24-22.86,0-3.68-.12-4.44,1.32-4.43,4.67q.12,75.64,0,151.3c0,3.33.94,5.12,4.34,6,15.17,3.94,30.5,6,46.09,3.58,30.86-4.79,59-26.57,56.83-67-1.43-27.15-20.31-48.19-47-50.87C1034.79,498.5,1025.45,499.69,1015.51,499.93ZM720.15,616.61c-.78-2.5-1.19-4-1.69-5.38q-7.4-20.93-14.83-41.83Q685.77,519,667.92,468.63c-.82-2.32-1.48-4.36-4.75-4.31-11.15.16-22.31.11-33.46,0-2.59,0-3.18,1.08-3.52,3.49a93,93,0,0,1-3.13,15.2c-3.84,11.93-8.14,23.72-12.25,35.56q-16,45.9-31.92,91.8c-2,5.73-1.92,5.79,4.31,5.8,6.77,0,13.55-.17,20.32.07,3.38.11,5.08-1,6.09-4.28,2.81-9.16,6.21-18.14,8.85-27.34,1.13-3.93,3-4.84,6.83-4.78,14.39.22,28.8.29,43.19,0,4.38-.1,6.16,1.38,7.32,5.39,2,7,4.65,13.89,7,20.82,3.61,10.57,3.61,10.57,15,10.57ZM1726.78,565c1.58,1.84,2.33,2.63,3,3.49,11.31,14.78,22.66,29.53,33.85,44.41a8.18,8.18,0,0,0,7.44,3.66c10.31-.19,20.62-.06,30.93-.08,1.41,0,2.83-.21,5.25-.4l-51.62-62.9,45.32-50.5c-.29-.42-.59-.83-.88-1.24-1.5-.09-3-.25-4.48-.25-7.91,0-15.82.18-23.72-.1-3.81-.13-6.25,1.24-8.59,4.12-11,13.57-22.27,27-33.4,40.46a18.09,18.09,0,0,0-1.62,2.85c-.49-.29-1-.58-1.48-.86v-4.44c0-28.76,0-57.51.07-86.26,0-3.79-1-5.33-5-5.19-7.62.25-15.25.17-22.87,0-3.14-.06-4.59.75-4.58,4.24q.12,78,0,156c0,3.11,1,4.27,4.15,4.21,7.76-.14,15.54-.23,23.29,0,4,.14,5.09-1.35,5-5.15-.18-13.53-.07-27.06-.06-40.59Zm-453.92,13.15c-.09,1.13-.29,2.48-.29,3.84,0,7.61.16,15.22-.09,22.83-.13,3.88,1.43,5.81,4.94,7.21,21.13,8.45,42.81,9.15,64.4,3.16,16.49-4.58,28-15.5,31-33s-2.58-32-17.07-42.7a79.49,79.49,0,0,0-12.67-7.63c-8.77-4.21-17.82-7.84-26.59-12.06a40.36,40.36,0,0,1-9.37-6.39c-5.54-5-5.14-13.33,1.08-17.47a26.73,26.73,0,0,1,11.26-4.34c14.66-1.72,29-.42,42.6,6a24.13,24.13,0,0,0,3.18.93c.1-1.8.23-3.15.23-4.51,0-6.34,0-12.68,0-19,0-6.82,0-7.47-6.72-9.24-19-5-38.31-6.44-57.14.27-16.52,5.89-27.14,17.62-29.14,35.6-2,18.28,4.54,32.79,20.89,41.87,8.72,4.85,18.07,8.57,27.07,12.93a128.19,128.19,0,0,1,14.14,7.52c5,3.28,8.16,8,6.51,14.38-1.54,5.93-6,9-11.75,10.33-10.57,2.52-21.16,1.67-31.4-1.27C1289.58,585,1281.6,581.42,1272.86,578.12Zm301.47-18c-.14-3.14-.13-5.54-.38-7.92-2.25-21.61-11.24-39.45-31.86-48.32-20.47-8.8-41.19-7.42-59.39,6.31-20,15.07-26.07,36.15-22.15,60.15,6.92,42.47,51.67,62.8,87.75,39.86C1566.74,598.44,1573.55,580.32,1574.33,560.08Zm-609.39-.78c-.38-4.06-.58-8.14-1.18-12.17-6.43-42.84-53.85-63.15-89.29-38-19.61,13.91-26.62,33.89-24,57,5.07,45.29,41.9,59.72,75,50.25C949.68,609.4,964.54,587,964.94,559.3Zm172.13,7.82c1.68,0,3.33,0,5,0,20.18-.29,40.35-.61,60.53-.83,3.57,0,5.66-1.27,5.67-5.08,0-6.75.78-13.58,0-20.23-2.78-22.78-17.31-41.14-44.18-42.46-19-.94-35.57,4.07-47.4,19.92-11.21,15-14.89,32.17-12.5,50.4,2.44,18.66,10.57,34.29,28.3,43,18.91,9.25,38.64,7.94,58.33,3,9.32-2.36,9.23-2.71,9.23-12.41V586.2a6.4,6.4,0,0,0-1.61-.16c-1.21.39-2.38.87-3.59,1.25-12.59,4-25.37,5.62-38.37,2.4C1145.44,587,1137.76,578.05,1137.07,567.12Zm258.71-66.4c-4.34,0-8.28.07-12.21,0-2.66-.06-3.83.93-3.77,3.72.12,6.48.15,13,0,19.44-.07,3,1.23,4,4,3.85,3.76-.14,7.52,0,11.67,0v5.2c0,16.77,0,33.55,0,50.32a87.24,87.24,0,0,0,.63,11c1.31,10,5.81,18.08,15.66,21.87,11.54,4.45,23.32,3.3,34.94.06,1.29-.36,3-2.16,3.09-3.36.3-7,.15-14,.15-21.19-2.74.37-5,.77-7.18,1-8.85.78-13.33-3.05-14-11.85-.06-.85-.09-1.69-.09-2.54q0-23.25,0-46.51c0-1.2.23-2.4.38-3.91,6.11,0,11.89-.22,17.64.07,4,.21,5.61-.91,5.34-5.13-.34-5.34-.08-10.71-.08-16.06,0-5.83,0-5.83-5.76-5.84H1429V466.94c-7.87,1-15.68,2.09-23.49,3.1-7,.91-7.13.88-7.83,7.83C1397,485.27,1396.44,492.7,1395.78,500.72Zm279.78,27c0-7.52.11-15.91-.14-24.3,0-1-1.87-2.55-3.11-2.84a72.84,72.84,0,0,0-11.66-1.79c-17.28-1-33.71,1.43-48.47,11.45-32.36,22-33.46,73.92-1.92,97,17.24,12.6,36.57,13.57,56.64,9.93,8.94-1.62,8.9-1.83,8.9-10.67V588.41c-5.33.65-9.92,1.5-14.54,1.69a76.94,76.94,0,0,1-13.91-.56c-17.53-2.55-27.52-14.5-27.44-32.37.08-17.15,9.88-28.56,27.69-30.36C1656.41,525.91,1665.44,527.33,1675.56,527.75Z" transform="translate(-112.08 -358.47)"/><path d="M300.27,719.65q-61,0-122,0c-33.66,0-63.1-27.54-65.39-61.14-.15-2.25-.21-4.51-.21-6.76,0-75.28-.26-150.55.12-225.83.14-26.88,12.47-47.29,36.74-59.69a65.47,65.47,0,0,1,30.2-7.19q120.54.09,241.08,0c37.08,0,66.67,29.19,66.74,66.26.14,76.12.32,152.25-.11,228.37-.15,26.59-12.84,46.66-36.6,59a62.23,62.23,0,0,1-28.95,7C381.34,719.57,340.8,719.65,300.27,719.65ZM199.19,579.82c0,11.3-.14,21.83.17,32.35,0,1.34,2.24,3.37,3.79,3.8,9.07,2.51,18.14,5.5,27.42,6.72,16.51,2.17,33.09,1.83,48.62-5.31,16.29-7.48,26.7-19.68,28.09-38.13,1.42-19-5.86-34-22.45-43.66-8.12-4.72-17-8.1-25.48-12.27-7.2-3.54-14.65-6.76-21.29-11.18-7.76-5.16-7.5-15.18.18-20.12a28,28,0,0,1,11-4A83.3,83.3,0,0,1,286.05,491c4,1.26,7.81,3,12.18,4.64.17-1.58.39-2.77.39-4,0-7.75-.12-15.5.08-23.25.09-3.39-1.22-5.56-4.36-6.24-7.41-1.62-14.82-3.63-22.33-4.3-14.23-1.26-28.56-1.51-42.25,3.71-16.85,6.42-28,18-30.35,36.29-2.42,18.89,3.24,34.89,20.33,44.82,10.8,6.27,22.51,11,33.74,16.55,4.53,2.25,9.32,4.36,13.11,7.57a17.75,17.75,0,0,1,5.44,9.51c1.5,7.52-3.8,13.71-12.7,15.55-15,3.11-29.52,1-43.62-4.43C210.37,585.38,205.3,582.66,199.19,579.82ZM368,527.06c7.07,0,13.82-.11,20.56.05,3,.07,4-1,3.92-3.91-.16-6.2,0-12.4-.05-18.6,0-6.35,0-6.36-6.55-6.36H368.59V462.12c-10,1.23-20,2.3-29.82,3.82-1.21.19-2.73,2.72-2.93,4.32-1,8-1.86,16-2.3,24-.18,3.48-1.55,4.28-4.63,4.06-2.81-.21-5.65.06-8.47-.07-3-.15-4.32.95-4.23,4.15q.27,10.13,0,20.28c-.09,3.23.88,4.71,4.31,4.46,3-.22,5.93.11,8.88-.09s3.65.93,3.61,3.65c-.13,9.16-.07,18.32-.05,27.47,0,11.56-.18,23.12.23,34.66q.85,24.11,22.92,29.53c11,2.7,21.9,1.43,32.54-2,1.15-.37,2.44-2.41,2.5-3.72.26-6.19.1-12.4.13-18.6,0-2.11-.8-3-3.09-2.83a64.66,64.66,0,0,1-10.13.11c-6-.53-8.88-3.34-9.82-9.22a43.36,43.36,0,0,1-.44-6.74q0-23.88,0-47.76C367.79,530.22,367.93,528.86,368,527.06Z" transform="translate(-112.08 -358.47)"/><path d="M799.21,499V466.14c0-3.81-.21-7.64.15-11.41.1-1.09,1.83-2.87,2.86-2.9q13.13-.34,26.26,0c1,0,2.28,1.73,2.92,2.93.47.88.1,2.2.1,3.33q0,63.44,0,126.88c0,6.75.6,13.51.63,20.27,0,1.46-.95,3.83-2,4.26-21.31,8.28-43.14,12.58-65.82,6.5-21.33-5.72-34.79-19.39-38.89-41.2-4.21-22.41,0-42.74,17.31-58.91,11.84-11.08,26.34-16.08,42.37-16.89C789.56,498.77,794.07,499,799.21,499Zm.26,59.43c0-9.3-.14-18.61.07-27.9.08-3.36-1.2-4.28-4.33-4.64-17.08-2-39.12,7.77-37.49,35.38,1.27,21.61,16.4,32.48,38,29.45,3-.43,3.84-1.87,3.78-4.82C799.35,576.72,799.46,567.56,799.47,558.4Z" transform="translate(-112.08 -358.47)"/><path d="M1015.51,499.93c9.94-.24,19.28-1.43,28.41-.51,26.67,2.68,45.55,23.72,47,50.87,2.13,40.42-26,62.2-56.83,67-15.59,2.42-30.92.36-46.09-3.58-3.4-.88-4.35-2.67-4.34-6q.12-75.66,0-151.3c0-3.35.75-4.79,4.43-4.67,7.62.26,15.25.21,22.86,0,3.46-.09,4.69,1,4.65,4.58-.18,13.24-.07,26.48-.07,39.72Zm.16,59.57c0,9.3.14,18.6-.07,27.89-.08,3.14,1.08,4.22,4,4.5,7.63.73,14.94-.17,21.76-3.84,13.19-7.11,19.28-22,16-39-2.72-13.93-11.44-21.88-25.48-22.78-4-.25-8.16.34-12.23.65-2.79.22-4.07,1.56-4,4.67C1015.81,540.89,1015.67,550.2,1015.67,559.5Z" transform="translate(-112.08 -358.47)"/><path d="M720.15,616.61H697.82c-11.4,0-11.4,0-15-10.57-2.36-6.93-5-13.79-7-20.82-1.16-4-2.94-5.49-7.32-5.39-14.39.33-28.8.26-43.19,0-3.83-.06-5.7.85-6.83,4.78-2.64,9.2-6,18.18-8.85,27.34-1,3.3-2.71,4.39-6.09,4.28-6.77-.24-13.55-.07-20.32-.07-6.23,0-6.3-.07-4.31-5.8q15.95-45.9,31.92-91.8c4.11-11.84,8.41-23.63,12.25-35.56a93,93,0,0,0,3.13-15.2c.34-2.41.93-3.52,3.52-3.49,11.15.08,22.31.13,33.46,0,3.27-.05,3.93,2,4.75,4.31Q685.75,519,703.63,569.4q7.43,20.91,14.83,41.83C719,612.65,719.37,614.11,720.15,616.61Zm-73.72-124.4L628.81,551h35.93C658.61,531.32,652.6,512,646.43,492.21Z" transform="translate(-112.08 -358.47)"/><path d="M1726.78,565v5.56c0,13.53-.12,27.06.06,40.59.05,3.8-1,5.29-5,5.15-7.75-.26-15.53-.17-23.29,0-3.13.06-4.15-1.1-4.15-4.21q.12-78,0-156c0-3.49,1.44-4.3,4.58-4.24,7.62.15,15.25.23,22.87,0,4-.14,5,1.4,5,5.19-.12,28.75-.07,57.5-.07,86.26v4.44c.5.28,1,.57,1.48.86a18.09,18.09,0,0,1,1.62-2.85c11.13-13.49,22.36-26.89,33.4-40.46,2.34-2.88,4.78-4.25,8.59-4.12,7.9.28,15.81.07,23.72.1,1.49,0,3,.16,4.48.25.29.41.59.82.88,1.24l-45.32,50.5,51.62,62.9c-2.42.19-3.84.39-5.25.4-10.31,0-20.62-.11-30.93.08a8.18,8.18,0,0,1-7.44-3.66c-11.19-14.88-22.54-29.63-33.85-44.41C1729.11,567.6,1728.36,566.81,1726.78,565Z" transform="translate(-112.08 -358.47)"/><path d="M1272.86,578.12c8.74,3.3,16.72,6.91,25.05,9.3,10.24,2.94,20.83,3.79,31.4,1.27,5.72-1.36,10.21-4.4,11.75-10.33,1.65-6.35-1.47-11.1-6.51-14.38a128.19,128.19,0,0,0-14.14-7.52c-9-4.36-18.35-8.08-27.07-12.93-16.35-9.08-22.92-23.59-20.89-41.87,2-18,12.62-29.71,29.14-35.6,18.83-6.71,38.12-5.27,57.14-.27,6.73,1.77,6.71,2.42,6.72,9.24,0,6.34,0,12.68,0,19,0,1.36-.13,2.71-.23,4.51a24.13,24.13,0,0,1-3.18-.93c-13.57-6.46-27.94-7.76-42.6-6a26.73,26.73,0,0,0-11.26,4.34c-6.22,4.14-6.62,12.48-1.08,17.47a40.36,40.36,0,0,0,9.37,6.39c8.77,4.22,17.82,7.85,26.59,12.06a79.49,79.49,0,0,1,12.67,7.63c14.49,10.65,20,25.3,17.07,42.7s-14.47,28.4-31,33c-21.59,6-43.27,5.29-64.4-3.16-3.51-1.4-5.07-3.33-4.94-7.21.25-7.61.06-15.22.09-22.83C1272.57,580.6,1272.77,579.25,1272.86,578.12Z" transform="translate(-112.08 -358.47)"/><path d="M1574.33,560.08c-.78,20.24-7.59,38.36-26,50.08-36.08,22.94-80.83,2.61-87.75-39.86-3.92-24,2.18-45.08,22.15-60.15,18.2-13.73,38.92-15.11,59.39-6.31,20.62,8.87,29.61,26.71,31.86,48.32C1574.2,554.54,1574.19,556.94,1574.33,560.08Zm-81.86-1.79-1.18.31c1.86,6.86,2.94,14.07,5.78,20.51,3.66,8.3,10.67,12.89,20.16,12.94,9.1,0,16-3.94,19.79-12,6.44-13.73,6.46-27.84.56-41.8-3.67-8.68-10.94-12.24-19.95-12.47s-15.82,3.48-20.26,11.4A39.63,39.63,0,0,0,1492.47,558.29Z" transform="translate(-112.08 -358.47)"/><path d="M964.94,559.3c-.4,27.7-15.26,50.1-39.54,57.06-33.06,9.47-69.89-5-75-50.25-2.59-23.11,4.42-43.09,24-57,35.44-25.13,82.86-4.82,89.29,38C964.36,551.16,964.56,555.24,964.94,559.3Zm-31.63-1.2c-1.9-7-2.84-14.26-5.82-20.6-7.1-15.09-29.3-16.06-38.57-2.14-8.22,12.33-8.18,34.42.21,46.71,5,7.4,12.17,10.7,21.12,9.88,8.36-.76,14.59-5.11,17.53-12.73C930.33,572.62,931.44,565.47,933.31,558.1Z" transform="translate(-112.08 -358.47)"/><path d="M1137.07,567.12c.69,10.93,8.37,19.85,19.35,22.57,13,3.22,25.78,1.55,38.37-2.4,1.21-.38,2.38-.86,3.59-1.25a6.4,6.4,0,0,1,1.61.16v16.14c0,9.7.09,10-9.23,12.41-19.69,5-39.42,6.3-58.33-3-17.73-8.67-25.86-24.3-28.3-43-2.39-18.23,1.29-35.4,12.5-50.4,11.83-15.85,28.41-20.86,47.4-19.92,26.87,1.32,41.4,19.68,44.18,42.46.81,6.65,0,13.48,0,20.23,0,3.81-2.1,5-5.67,5.08-20.18.22-40.35.54-60.53.83C1140.4,567.14,1138.75,567.12,1137.07,567.12Zm.06-22.44c13.28,0,26.25,0,39.21,0a16.64,16.64,0,0,0,2.38-.32c1.24-9.33-5.89-18.5-15.16-19.75C1149.8,522.73,1139.11,530.62,1137.13,544.68Z" transform="translate(-112.08 -358.47)"/><path d="M1395.78,500.72c.66-8,1.17-15.45,1.91-22.85.7-6.95.81-6.92,7.83-7.83,7.81-1,15.62-2.06,23.49-3.1v33.77h17.28c5.75,0,5.75,0,5.76,5.84,0,5.35-.26,10.72.08,16.06.27,4.22-1.37,5.34-5.34,5.13-5.75-.29-11.53-.07-17.64-.07-.15,1.51-.38,2.71-.38,3.91q0,23.26,0,46.51c0,.85,0,1.69.09,2.54.64,8.8,5.12,12.63,14,11.85,2.23-.19,4.44-.59,7.18-1,0,7.23.15,14.22-.15,21.19,0,1.2-1.8,3-3.09,3.36-11.62,3.24-23.4,4.39-34.94-.06-9.85-3.79-14.35-11.85-15.66-21.87a87.24,87.24,0,0,1-.63-11c-.07-16.77,0-33.55,0-50.32v-5.2c-4.15,0-7.91-.1-11.67,0-2.82.11-4.12-.8-4-3.85.16-6.48.13-13,0-19.44-.06-2.79,1.11-3.78,3.77-3.72C1387.5,500.79,1391.44,500.72,1395.78,500.72Z" transform="translate(-112.08 -358.47)"/><path d="M1675.56,527.75c-10.12-.42-19.15-1.84-28-.94-17.81,1.8-27.61,13.21-27.69,30.36-.08,17.87,9.91,29.82,27.44,32.37a76.94,76.94,0,0,0,13.91.56c4.62-.19,9.21-1,14.54-1.69v18.08c0,8.84,0,9-8.9,10.67-20.07,3.64-39.4,2.67-56.64-9.93-31.54-23-30.44-75,1.92-97,14.76-10,31.19-12.49,48.47-11.45a72.84,72.84,0,0,1,11.66,1.79c1.24.29,3.08,1.83,3.11,2.84C1675.67,511.84,1675.56,520.23,1675.56,527.75Z" transform="translate(-112.08 -358.47)"/><path class="cls-1" d="M199.19,579.82c6.11,2.84,11.18,5.56,16.52,7.61,14.1,5.4,28.64,7.54,43.62,4.43,8.9-1.84,14.2-8,12.7-15.55a17.75,17.75,0,0,0-5.44-9.51c-3.79-3.21-8.58-5.32-13.11-7.57-11.23-5.56-22.94-10.28-33.74-16.55-17.09-9.93-22.75-25.93-20.33-44.82,2.35-18.32,13.5-29.87,30.35-36.29,13.69-5.22,28-5,42.25-3.71,7.51.67,14.92,2.68,22.33,4.3,3.14.68,4.45,2.85,4.36,6.24-.2,7.75,0,15.5-.08,23.25,0,1.2-.22,2.39-.39,4-4.37-1.68-8.2-3.38-12.18-4.64A83.3,83.3,0,0,0,249.24,488a28,28,0,0,0-11,4c-7.68,4.94-7.94,15-.18,20.12,6.64,4.42,14.09,7.64,21.29,11.18,8.45,4.17,17.36,7.55,25.48,12.27,16.59,9.66,23.87,24.64,22.45,43.66-1.39,18.45-11.8,30.65-28.09,38.13-15.53,7.14-32.11,7.48-48.62,5.31-9.28-1.22-18.35-4.21-27.42-6.72-1.55-.43-3.75-2.46-3.79-3.8C199.05,601.65,199.19,591.12,199.19,579.82Z" transform="translate(-112.08 -358.47)"/><path class="cls-1" d="M368,527.06c-.1,1.8-.24,3.16-.24,4.53q0,23.88,0,47.76a43.36,43.36,0,0,0,.44,6.74c.94,5.88,3.84,8.69,9.82,9.22a64.66,64.66,0,0,0,10.13-.11c2.29-.17,3.09.72,3.09,2.83,0,6.2.13,12.41-.13,18.6-.06,1.31-1.35,3.35-2.5,3.72-10.64,3.41-21.58,4.68-32.54,2Q334,616.9,333.19,592.8c-.41-11.54-.19-23.1-.23-34.66,0-9.15-.08-18.31.05-27.47,0-2.72-.78-3.84-3.61-3.65s-5.93-.13-8.88.09c-3.43.25-4.4-1.23-4.31-4.46q.27-10.14,0-20.28c-.09-3.2,1.2-4.3,4.23-4.15,2.82.13,5.66-.14,8.47.07,3.08.22,4.45-.58,4.63-4.06.44-8,1.29-16,2.3-24,.2-1.6,1.72-4.13,2.93-4.32,9.86-1.52,19.78-2.59,29.82-3.82v36.12h17.32c6.55,0,6.55,0,6.55,6.36,0,6.2-.11,12.4.05,18.6.07,2.92-1,4-3.92,3.91C381.85,527,375.1,527.06,368,527.06Z" transform="translate(-112.08 -358.47)"/><path class="cls-1" d="M799.47,558.4c0,9.16-.12,18.32.06,27.47.06,3-.77,4.39-3.78,4.82-21.63,3-36.76-7.84-38-29.45-1.63-27.61,20.41-37.36,37.49-35.38,3.13.36,4.41,1.28,4.33,4.64C799.33,539.79,799.47,549.1,799.47,558.4Z" transform="translate(-112.08 -358.47)"/><path class="cls-1" d="M1015.67,559.5c0-9.3.14-18.61-.07-27.9-.07-3.11,1.21-4.45,4-4.67,4.07-.31,8.18-.9,12.23-.65,14,.9,22.76,8.85,25.48,22.78,3.32,17-2.77,31.88-16,39-6.82,3.67-14.13,4.57-21.76,3.84-2.91-.28-4.07-1.36-4-4.5C1015.81,578.1,1015.67,568.8,1015.67,559.5Z" transform="translate(-112.08 -358.47)"/><path class="cls-1" d="M646.43,492.21C652.6,512,658.61,531.32,664.74,551H628.81Z" transform="translate(-112.08 -358.47)"/><path class="cls-1" d="M1492.47,558.29a39.63,39.63,0,0,1,4.9-21.15c4.44-7.92,11.34-11.63,20.26-11.4s16.28,3.79,19.95,12.47c5.9,14,5.88,28.07-.56,41.8-3.79,8.1-10.69,12.08-19.79,12-9.49,0-16.5-4.64-20.16-12.94-2.84-6.44-3.92-13.65-5.78-20.51Z" transform="translate(-112.08 -358.47)"/><path class="cls-1" d="M933.31,558.1c-1.87,7.37-3,14.52-5.53,21.12-2.94,7.62-9.17,12-17.53,12.73-9,.82-16.07-2.48-21.12-9.88-8.39-12.29-8.43-34.38-.21-46.71,9.27-13.92,31.47-13,38.57,2.14C930.47,543.84,931.41,551.14,933.31,558.1Z" transform="translate(-112.08 -358.47)"/><path class="cls-1" d="M1137.13,544.68c2-14.06,12.67-21.95,26.43-20.09,9.27,1.25,16.4,10.42,15.16,19.75a16.64,16.64,0,0,1-2.38.32C1163.38,544.68,1150.41,544.68,1137.13,544.68Z" transform="translate(-112.08 -358.47)"/></svg>