<svg id="Layer_1" data-name="Layer 1" xmlns="http://www.w3.org/2000/svg" viewBox="0 0 1730.2 848.22"><path d="M1538.87,964.11V857.2h5.7c38.77-.1,77.53-.06,116.3-.41,11.52-.1,22.6-2.64,32.1-9.86a39.81,39.81,0,0,0,15.16-24.49,277.81,277.81,0,0,0,5-38.85c.84-16.09.25-32.26.26-48.39,0-.53-.11-1.06-.3-2.71-1.15,2-1.85,3.17-2.46,4.36-7,13.83-15.75,26.49-27.16,37.12-22.92,21.34-50.39,29.25-81.13,27.19-15.72-1-30.79-4.34-44.06-13.53-17.14-11.86-26.21-29.08-32.14-48.33-6.61-21.48-9.21-43.66-10.35-66-.83-16.39-1.19-32.82-1.21-49.24q-.13-188.19,0-376.39v-5.76h113.71c.09,1.89.27,3.83.27,5.77q0,194.25.14,388.49a227.93,227.93,0,0,0,2.95,33.47c.79,5.23,3.23,10.51,6,15.11,7.46,12.31,19.69,15.12,33,14.84,22-.47,35.33-12.08,40.11-35.46,1.6-7.86,3.74-16.37,2.27-23.94-4.18-21.56-1.18-43.13-1.85-64.66-.68-21.73-.15-43.5-.15-65.25V241.55H1825.1V800.76l-1.5,23.64c-1.51,23.48-4.31,46.73-12.19,69.09-8.2,23.25-22,41.91-44.21,53.69-15.23,8.09-31.72,12.1-48.65,14.23-10.83,1.36-21.78,1.83-32.67,2.7Z" transform="translate(-94.9 -115.89)"/><path d="M1099.76,793.89H986.11v-552h113.5v61c5.38-8.71,9.75-16.61,14.91-23.95,14.19-20.18,32.51-35.09,56.78-41.31,20.57-5.27,41.24-4.79,61.33,2.32,21.5,7.61,33.63,24.38,41.37,44.84,2.85,7.52,5,15.28,7.76,23.6.82-1.84,1.42-3.23,2.06-4.61,15.16-33,38.72-56.75,74.54-66.25a101.17,101.17,0,0,1,61.26,2.66c18.79,6.77,30.81,20.64,38.78,38.44,8.23,18.38,12.26,37.88,13.72,57.74,1.85,25.26,3.36,50.61,3.43,75.93.33,125.32.15,250.64.15,376v5.46h-114v-5.92q0-192.52-.12-385c0-11.61-1.56-23.23-2.53-34.84a31.52,31.52,0,0,0-1.53-6.27c-3.77-12.87-11.29-21.57-25.48-22.85-14.5-1.3-26.12,3.49-33.63,16.37s-9.32,27.17-9.34,41.68q-.21,115.61-.1,231.2v166H1178.39c-5.85,0-5.86,0-5.86-5.78q0-191.22-.13-382.45c0-12.46-1.7-24.94-2.88-37.38-.27-3-1.45-5.87-2.48-8.7-4.4-12.07-12.22-20.13-25.72-21.06-13.86-.95-24.86,4.15-32,16.29-7.56,12.84-9.41,27.17-9.44,41.66q-.24,120.36-.11,240.71,0,75.62,0,151.24Z" transform="translate(-94.9 -115.89)"/><path d="M219.39,425.61h-114c0-8-.1-15.87,0-23.74.42-26.46,3.13-52.62,11.39-77.92,15.51-47.45,48.11-75.78,96.94-85.18,34.67-6.67,69.4-6.62,103.68,2.58,44.1,11.83,71.78,40.7,85.26,83.81,7.42,23.71,10,48.13,10.6,72.85.08,3.21-1.11,6.8,2.3,9.49.82.64.34,3,.34,4.58q0,153.17,0,306.34c0,23.2.21,46.39,5.63,69.15.46,1.95.87,3.91,1.46,6.55h-4.93c-30,0-59.94-.07-89.92.08a9.93,9.93,0,0,1-8.49-4c-8-9.89-12.14-21.51-14.67-33.73-1.53-7.4-2.37-14.94-3.69-23.5-1.32,2.92-2.26,5-3.24,7.18-7.9,17.24-18,32.82-33.62,44.19-20.14,14.69-43.17,18.49-67.33,16.81-45.92-3.18-76-28.2-90.23-70.68C90,680,90.54,629,111.33,579.29c13.49-32.23,36.75-56.76,65.39-75.88,22-14.7,45.39-27.33,67.82-41.41a299.72,299.72,0,0,0,33.4-23.73c25.19-21.14,29.25-49.08,19-81-3-9.25-10.25-14.82-19.71-17.11a59.48,59.48,0,0,0-26.58-.35c-14,3-22,12.32-26.25,25.39-4.11,12.62-4.94,25.68-5,38.83C219.37,411.08,219.39,418.11,219.39,425.61Zm82.55,91.95c-12.25,17-28.62,28.91-43.84,42.08-7.18,6.22-14.35,12.5-21,19.24-18.6,18.78-29.08,41-27.14,68A109.36,109.36,0,0,0,212.72,666C219.37,692,244,704.13,269.3,694.33c13.58-5.25,22.73-15.42,30.21-27.33a15.17,15.17,0,0,0,2.33-7.56q.2-68.93.1-137.85Z" transform="translate(-94.9 -115.89)"/><path d="M946.8,794.12h-5.67c-29.55,0-59.09-.1-88.64.1A10.91,10.91,0,0,1,843,789.6c-8.48-10.89-12.47-23.59-14.93-36.87-1.14-6.2-1.78-12.49-2.82-19.93-1.33,2.94-2.25,4.94-3.15,7-6.42,14.32-14.64,27.45-26.14,38.29-15.94,15.05-35.42,21.69-56.87,23.14-29.14,2-55.91-4.17-78.34-24-16-14.18-26.5-32-32.18-52.33-12.87-45.95-13.21-91.89,3.16-137.19,10.13-28,27.8-50.88,50.35-70.12,20.51-17.49,43.65-31,67-44.2,17.68-10,35.31-20.06,51-33.21,20-16.74,28.59-37.78,25.05-63.62A106.76,106.76,0,0,0,821.77,360c-3.38-11.15-11-18.52-22.58-20a88,88,0,0,0-24.84.1c-13.74,2.2-21.64,11.74-25.92,24.48s-5.23,26.2-5.19,39.65c0,7,0,14,0,21.32h-114c0-8.45-.14-16.76,0-25.07.57-27.33,3.53-54.3,12.7-80.29,15.42-43.74,46-70.46,91.11-80.41a231.74,231.74,0,0,1,101.23-.14c47.59,10.56,78.07,39.8,92.39,86.18,7.42,24,9.86,48.75,10.45,73.75.06,2.65-1,5.65,2.16,7.74.79.52.41,3,.41,4.55q0,154.92,0,309.85c0,22.51.63,44.94,5.9,67C946,790.17,946.28,791.71,946.8,794.12ZM828.17,517.44c-11.6,14.79-26,25.83-40,37.46-9.27,7.75-18.51,15.6-27.14,24.05-24.35,23.83-32.41,52.66-24.88,85.78,3.3,14.5,11,26,25.86,30.33,17.92,5.21,34.41,1.66,47.9-11.62,5.39-5.31,9-12.38,14.53-17.55,4.27-4,3.68-8.35,3.68-13q0-65.45,0-130.88Z" transform="translate(-94.9 -115.89)"/><path d="M578,793.86H464.82v-678H578Z" transform="translate(-94.9 -115.89)"/></svg>