<svg id="Layer_1" data-name="Layer 1" xmlns="http://www.w3.org/2000/svg" viewBox="0 0 1346.53 501.77"><defs><style>.cls-1{fill:#8ba751;fill-rule:evenodd;}</style></defs><path class="cls-1" d="M1089.58,309.53c15.08-6.55,30-13.46,45.12-19.88-4.11,19.81-7.82,39.7-11.3,59.64,27-7.94,54.21-15.81,82.15-19.76,10.83-1.33,22.3-2.71,32.69,1.54,9.75,3.92,17.54,13.73,17.08,24.54.32,6.82-4,12.95-9.32,16.77-8,5.73-18,7.58-27.59,7.94-8.41.27-17.4-2.13-23.21-8.53-5-5.07-6.89-12.28-7.09-19.2-22.86,4.46-45.44,10.25-67.91,16.35-7,44.38-12.66,89.14-13.06,134.12.62,18.74.34,38.7,9.79,55.56,2.39,4.33,4.89,9.25,9.54,11.56,4.55,1.72,8.38-2.36,11-5.54a172,172,0,0,0,23.72-43c13.43-35,22.77-71.52,31.19-108,1.91-4.27,6.47-6.49,10.14-9,8.19-4.65,17.19-9.43,26.89-8.85a7.05,7.05,0,0,1,6.69,7.66c-1.1,35.89-3.69,71.78-2.75,107.71.52,11.91,1.08,23.94,4.15,35.51,1.26,3.89,2.7,8.58,6.83,10.28,2.31,0,4.09-1.84,5.44-3.52,4-5.23,5.87-11.62,8.55-17.54,10.79-24.66,21.62-49.32,30.63-74.71a360.94,360.94,0,0,1,15.85-35c1.61-2.94,2.16-6.78,5.26-8.62,7.1-4.45,15.25-7,23.42-8.72,4.47-.67,9.39-1.62,13.66.45,1.46.61,1.9,2.27,2,3.72.56,24.76,1.2,49.54,2.8,74.26,1.24,16.71,2.71,33.49,6.71,49.8,2.11,8.2,4.68,16.51,9.52,23.54,1.57,2.12,4.55,4.88,7.26,2.86,4-3.29,5.14-8.64,6.68-13.32,5.67-20.61,8.55-41.84,11.68-62.94,2.08-13.15,4.93-26.49,11.6-38.16,3.86-6.78,9.46-12.79,16.67-16s15.16-3.23,22.65-1.7c2.61.41,5.55,2.17,5.58,5.12-.08,3.42-1.74,6.52-3.11,9.57-5.93,12.4-8.36,26.66-5.79,40.23,2.88,17,13.34,33.39,29.51,40.39-3.35-22.58,1.5-45.61,10.51-66.35,5.8-13.06,14-25.48,25.47-34.2,15.31-11.95,36.65-15.19,55.08-9.45a36.32,36.32,0,0,1,22.6,21.1c4.13,9.58,4.09,20.2,3.63,30.45-1.16,21.39-9,42.55-22.89,59-12,14.43-29.89,24.1-48.78,24.73,4.44,14.44,15.71,26.78,30.16,31.61,12.14,4,26,5.35,37.91-.16,18.92-8.47,31.06-27,38-45.92.68-2.22,2-4.26,4.31-5,3.75,4,4.39,9.61,5.36,14.75,1,7.65,1.56,15.52.24,23.18-1.38,5.48-5.79,9.47-9.54,13.42-13.8,13.2-32.91,19.82-51.8,20.27-19.74.21-40-3-57.56-12.4A78.93,78.93,0,0,1,1476.41,550c-10-2.51-19.66-6.65-27.62-13.22-12.49-10-19.9-25.13-22.4-40.73-3.06,8.63-6.32,17.21-8.63,26.09-5,19.36-10.31,39-20.18,56.48-5.25,8.95-12.1,18.19-22.46,21.39-9.36,2.87-19.18-1.07-26.7-6.63-9.46-7.49-18.17-16.3-23.83-27.07-8.41-15.77-12.14-33.57-14.34-51.18a554.71,554.71,0,0,1-1.39-65.49C1301,474,1291.8,497.9,1283.6,522.15c-6.52,18.06-11.35,36.7-18.43,54.57-3.66,8.62-7.6,17.75-15.14,23.71-4.1,3.32-9.63,4.09-14.72,3.35a34.87,34.87,0,0,1-25.41-13.49c-8.7-11.46-11.86-25.95-14-39.89-3.51-26-2.9-52.31-2.17-78.47-8.07,33.52-17.26,67.17-33.13,98-6.31,11.6-13.61,23.45-24.88,30.85-8.13,5.55-18.73,4.65-27.69,1.84-9.57-3-17.5-9.73-23.4-17.69A99.29,99.29,0,0,1,1069.75,556,96.65,96.65,0,0,1,1047.23,593c-6.24,5.94-14.2,11-23.13,10.81a39.55,39.55,0,0,1-30.94-14c-6-6.78-9.88-15.08-12.78-23.57a99.92,99.92,0,0,1-36,31.45,56.8,56.8,0,0,1-40.8,4.06c-18.57-5.22-34.37-20.17-39.74-38.82-8.57,14.27-20.58,26.81-35.64,34.2-16.38,8.09-35.27,9.72-53.2,7.43C753.74,602,732.88,592.88,718.28,577c-16.7,13.29-36.47,23.32-57.8,26.16-16.17,2.2-33.85,1.66-48.05-7.26-13.33-8.3-20.91-23.17-24.49-38-4.93-20.55-5-41.89-3.89-62.87,1-16.3,2.27-32.6,4.06-48.85,1-7.57,2.64-15.23,1.43-22.88a9.33,9.33,0,0,0-5.45-7.41c-8.13-3.48-16.82-5.39-25.28-7.87.08,41.25-6.15,83.6-25.39,120.55-12.92,24.94-33,46.38-58,59.45a153.82,153.82,0,0,1-42.36,14.55c-13.81,3.61-28.26,3.09-42.36,1.86-24-2.24-48.2-10.08-66.45-26.3-19-16.63-29.79-40.76-34.26-65.24-3.27-16.67-3.61-33.74-3-50.67a201.37,201.37,0,0,1,39-107.17c10.18-13.55,22.24-25.89,36.52-35.1,10.73-6.83,23-12.1,35.88-12.16a185.05,185.05,0,0,1,25,1.41C437,311.07,451,314.44,462,322.92a33.05,33.05,0,0,1,13.24,23.8c.66,9-1,18.4-5.89,26.09-3.32,5.1-8.78,9.53-15.16,9.33-5.06.23-9.73-3.35-11.47-8-2.5-5.89-.93-12.42-1.87-18.57-.79-6.49-2.43-13.49-7.45-18.06-3.55-3.31-8.77-4.09-13.39-3.14-7.66,1.53-14.38,5.83-20.5,10.49-13.79,10.91-24.71,25-33.89,39.88-12.84,21.41-21.91,45.41-24.21,70.38-1.31,21.36-.79,43.17,5.16,63.86,4.57,16.19,12.88,32,26.4,42.4,11.69,9.18,26.67,13.07,41.35,13.44,18-1.89,36-7.29,51.1-17.59,21.57-14.3,36.74-36.52,46.35-60.24,12.22-30.15,16.76-62.93,16.83-95.31-11-5.57-21.25-13.64-26.78-24.86-4.59-9.29-5-21.35,1.47-29.87,4.51-6.26,12.1-9.29,19.52-10.22a26.31,26.31,0,0,1,23.11,7.9c10.16,11,13.49,26.62,13.68,41.2,18.75,6.83,37.86,12.6,56.82,18.84,7.66,2.8,16.44,5.5,21.07,12.76,4.29,6.87,3,15.34,1.93,22.93-3.59,28.4-6.45,57-5.88,85.69.46,11.12,1.59,22.49,6,32.84,2.39,5.73,6.4,11.26,12.43,13.46,6.38,2.25,13.26.14,19.1-2.69,10.4-5.19,19.18-13,27.51-20.95C693,537,690.79,524,689.17,511.16c-3.88-31.07-.31-63.47,12.9-92.06,7.16-15.24,17.64-29.47,32.13-38.45,14.07-8.91,31.51-11.67,47.85-9.16,11.81,1.95,22,10.05,27.49,20.54,7.33,13.84,9.33,29.83,9.34,45.3.51,16.07-4.63,31.79-12,45.91-14.31,27-36,49.14-58.12,69.88,7.13,10.64,16.23,20.67,28.34,25.58,7.49,3.17,15.81,3.55,23.81,2.69,12-.73,23.87-5.41,32.47-13.9,9.77-9.53,15.86-22.19,19.84-35.1,2.51-12.1,3.37-24.51,6.24-36.54,8.2-34.15,23.12-67.33,47-93.45,10.24-11.74,25.08-20,40.84-20.56,6-.1,12.37.72,17.54,4,2.42,1.59,4.88,4.43,3.8,7.54-1.44,3.21-4.69,4.92-7.42,6.86-11.39,7.51-19.71,18.72-26.34,30.46a231.66,231.66,0,0,0-25.1,62.37c-4.12,18.21-6.06,37.55-1.16,55.81,1.7,7.42,7.35,13.45,14.08,16.75,4,2,8.95,2.51,13,.44,5.8-3,9.7-8.48,12.93-14,8.12-14.38,13-30.27,17.92-45.94,5.12-16.32,9.33-33,15.78-48.84,2-4.64,4.1-9.55,8-12.89,1.91-1.77,5.63-1.83,6.92.72,2.28,4.27,2.11,9.33,2.2,14,.14,12-2.64,23.86-2.55,35.89-.17,17.84,1,35.81,4.79,53.28,1.74,7.2,3.7,14.63,8.16,20.68,5.21,6.14,13.91,9.91,21.89,7.49,8.19-2.48,14.21-9.25,18.65-16.26A82.4,82.4,0,0,0,1062,517.11c-2.61-45,4.08-89.9,11.38-134.19-12.37,3.92-24.84,7.6-37,12.17-3.06,1.26-7.14,2.74-9.79-.12-3.94-4.46-1-11.59,4.13-13.66,15-6.49,30.56-11.46,46-16.87q4.83-26.37,10.31-52.65c0-1.41,1.56-1.71,2.55-2.26ZM760.47,408c-4.53,1.6-7.75,5.46-10.62,9.14-8.08,11.37-13,24.68-16.52,38.08-4.61,18.73-6.69,38.93-.73,57.61l1.13.12c19.62-20.32,34-46.5,37.81-74.72,1.05-8.61,1.34-17.89-2.44-25.93-1.41-3.25-5.05-5.78-8.63-4.3Zm765.81,44.24c-4.76,5.77-7.72,12.79-10.3,19.73-6.22,18.25-9.47,37.81-7.36,57.07a28.1,28.1,0,0,0,19.54-9.11c7.58-8.08,11.83-18.69,14.31-29.36,2.29-10.72,3.31-22.08.34-32.78-1.24-3.91-3.26-8.47-7.56-9.72-3.59-1-6.78,1.66-9,4.17Z" transform="translate(-286.73 -289.65)"/><path class="cls-1" d="M589.91,701.59c5.68,0,11.37,0,17.06,0,8.9,14.08,18,28,27,42.06,8.95-14.06,18-28,27-42.08,5.65,0,11.3,0,17,0q0,44.86,0,89.75h-16q0-31.77,0-63.55c-9.39,14-18.62,28.16-28.3,42Q619.66,748.86,605.65,728c0,21.1,0,42.21,0,63.31-5.24,0-10.48,0-15.72,0q0-44.87,0-89.74Z" transform="translate(-286.73 -289.65)"/><path class="cls-1" d="M737.51,791.33q19.75-45.12,39.46-90.26,7.46,0,14.91,0,19.74,45.12,39.42,90.24c-5.62.08-11.24,0-16.85.11-3.3-7.16-6.18-14.5-9.26-21.74-14,0-28,0-42,0-3,7.25-6.16,14.42-9.2,21.64-5.51,0-11,0-16.53,0Zm31.68-36q15,0,30.09,0-7.56-17.43-15.09-34.85c-5.1,11.58-10,23.24-15,34.85Z" transform="translate(-286.73 -289.65)"/><path class="cls-1" d="M890.82,701.59c13.55,0,27.1,0,40.65,0,9.14.1,18.84,2.52,25.5,9.15,10.71,11.38,9.68,32.51-3.42,41.68a36.69,36.69,0,0,1-10.37,5.05c8.09,11.25,16.09,22.56,24.16,33.83-6.38.07-12.75,0-19.11,0-7.35-10.38-14.71-20.77-22-31.2-6.47,0-12.94,0-19.4,0q0,15.6,0,31.18h-16V701.59Zm16,14.73v29.59H929.5c4.75,0,9.74-1,13.48-4.1,6.21-5,6.61-15.49.93-21-3.64-3.29-8.7-4.51-13.49-4.52-7.86,0-15.72,0-23.58,0Z" transform="translate(-286.73 -289.65)"/><path class="cls-1" d="M1027.8,701.59h16q0,22.32,0,44.66c14-14.92,28.17-29.72,42.16-44.66,6.63,0,13.27,0,19.9,0-12.21,13.09-25,25.62-37.24,38.7q19.47,25.5,39,51c-6.54.08-13.08,0-19.6.05-10.19-13.32-20.28-26.72-30.45-40.06-4.66,4.56-9,9.45-13.72,14q0,13,0,26.06c-5.34,0-10.68,0-16,0q0-44.88,0-89.75Z" transform="translate(-286.73 -289.65)"/><path class="cls-1" d="M1165,701.6q33.32,0,66.61,0v14.5H1181.1c0,7.6,0,15.2,0,22.8,15,.07,29.9,0,44.85,0,0,4.75,0,9.5,0,14.24-15,0-29.9,0-44.84,0,0,7.85.05,15.69,0,23.54,17.1.16,34.2,0,51.29.07,0,4.86,0,9.7,0,14.55q-33.64,0-67.28,0-.06-44.88,0-89.75Z" transform="translate(-286.73 -289.65)"/><path class="cls-1" d="M1288.9,701.56c24.25.06,48.51,0,72.76,0v15c-9.37,0-18.76,0-28.14,0q0,37.36,0,74.72c-5.42,0-10.85,0-16.27,0,0-24.91,0-49.82,0-74.73q-14.17,0-28.37,0c0-5,0-10,.05-15.05Z" transform="translate(-286.73 -289.65)"/></svg>