<svg id="Layer_1" data-name="Layer 1" xmlns="http://www.w3.org/2000/svg" viewBox="0 0 1570 319.12"><defs><style>.cls-1{fill:#67a243;}.cls-2{fill:#222;}</style></defs><path class="cls-1" d="M1223.56,28.42c-26.81-41-84.6-33.63-109.82-3.37-12.64,15.12-17.4,36.19-15.7,55.46,1.32,15,6.84,28.92,14.13,38.14,19.65,24.89,54.24,27.88,76.73,11.74,31.76-22.81,29.49-59.76,12.42-80.32-30.5-36.76-83.41-.55-63.91,41.23,4.8,10.26,15.86,15.47,25.79,15.34,14.22-.19,24.94-17.62,18.63-27.9-6.64-10.8-17.92-.06-13.27,8.1,3.74,6.56-4.41,9.89-8,9.1-9.27-2-13.7-15.53-10.49-26.5,2.76-9.4,12.3-16.17,21.48-15.57,12.76.83,27.06,11.21,25.32,34.21-2.77,37.12-49.52,44.26-68,17.45-29.2-42.25,5.45-99.73,57.67-82.37,27,9,46.84,42.22,34.44,77.13-4.66,13.13-7.53,18.06-8,22.57-2.12,17.53,49.55-35,10.65-94.45"/><path class="cls-2" d="M1562.83,214.56l-38,39.87c-5.59,5.27-11,7.2-18.25,3.41-6-4.08-9-9.83-8.61-16.89a18.51,18.51,0,0,1,5.29-10.14c9.13-9.83,18.42-19.79,27.63-29.65-9.82-1.32-17.44-2.85-27.18-.64-19.21,5.65-30.18,23.1-30.18,41.8,0,19.24,11.87,37.87,32.12,42.56,1.3.21,2.59.4,3.93.57,10.68.77,21.53-.19,32.29.28,12.41,1.62,15.53,13.1,12.51,23.46-2.74,6.66-7,9.52-14.42,9.89h-26.3a67.49,67.49,0,0,1-39.87-12.44,78.58,78.58,0,0,1-26.27-34.41,90.16,90.16,0,0,1-1.21-56.36c6.51-18.63,18.38-33.38,36.37-43.05l3.12-1.47c15.14-6,30.1-7,46-3.22a75.4,75.4,0,0,1,19.32,8.75c6,4.26,12.1,9.16,16.31,15.15,4.85,8.49,2.59,16.08-4.57,22.5M1174.29,302.4c-.23,7.57-2.35,13.31-8.74,16A12.66,12.66,0,0,1,1155,317.3c-4.76-3.64-6.07-8.47-6.26-14.91V182.61c.21-6.94,1.83-12.25,7.36-15.55,4.62-1.91,9.12-1.36,13.47,1.2,4.14,4.16,4.4,8.3,4.7,14.43v119.7m-63.83-47.71c-.07,3.35-.26,6.66-.59,10-3.24,23.32-16.8,43.65-39.53,51.79-15.39,4.56-30.67,3.19-44.76-4.59-12.38-7.79-20.55-18.33-25.88-31.91a79.21,79.21,0,0,1-4.12-25.3v-110c.26-7.47,2.64-13.57,10.06-16.37,10.08-2.47,17.74,2.43,19.73,12.51,1,8.37.28,17.18.28,25.56h69.82c9.32.42,13.92,5.71,14.91,14.7a28.74,28.74,0,0,1-2,12.74c-3.5,5.15-6.89,5.74-12.92,6.18h-69.77v54.88c.36,8.78,2.43,14.85,8,21.7l2,2.08c11,9.13,24,9.23,34.91,0,6.66-7,9.7-14.2,9.83-23.77,0-6.13.2-10,4.27-14.91a15,15,0,0,1,16.89-3.54c7.66,3.83,8.94,10.47,8.9,18.3M913.3,207a25.75,25.75,0,0,0-5.93,14.51c-.48,13.1-.09,26.34-.09,39.48a73.66,73.66,0,0,1-2.2,17.28c-5,17.55-16.26,32-33.24,38.42-6.17,1.88-25.93,3.26-32.34,1.7-10.24-3.86-12-16.7-7.51-25.84,3.14-5.1,6.74-6.89,12.41-7.14,4.26-.16,20.6-1.38,23.61-3.42,5-3.41,8.3-9.12,9.71-16l.25-2.4c.56-13.12.09-26.47.09-39.59A87.17,87.17,0,0,1,879,212c3.75-20.1,15.32-36.73,34.46-43.74,6.32-1.89,27.27-3.25,33.73-1.68,9.7,3.62,12.19,14.8,8.55,24-2.51,5-6,7.38-11.31,8.55-7.4,1-25.76,2.3-31.11,7.85M761.86,228.45c-.45-11.29-4.65-19.76-14.15-26.21-8.34-4.43-15.91-4.47-24.54-.55a36.36,36.36,0,0,0-7.33,6l-2.93,3.77v88.09c-.26,7.41-2.71,13-10.09,15.7a16.89,16.89,0,0,1-12.16-1.08c-5.52-3.58-7-8.3-7.25-14.62V228.43c-.47-12.23-5.75-21.62-16.75-27.44-7.3-2.86-13.27-2.83-20.64-.08-9.19,4.75-14,11.68-16.13,21.66-.26,2-.41,3.9-.49,5.88v71.09c0,11.54-7.82,18.51-19.4,15.7-7.4-2.68-9.8-8.26-10.11-15.7v-71a84.72,84.72,0,0,1,1.6-15.86c4.72-19.57,16.54-35.42,35.43-43.35,14.81-5.18,29.45-4.57,43.48,2.35,5.94,3.32,10.33,7,15.4,11.52,2.22-2,4.43-4,6.73-6,14.93-11.23,31.53-14,49.47-8.8,9.49,3.38,16.34,8.19,23.17,15.48a74.81,74.81,0,0,1,8.55,12.13,69.31,69.31,0,0,1,7.66,32.52v75.31c-.56,6.16-1.58,9.19-6.64,13-5.9,2.84-10.31,2.91-16.27.09-5.08-3.83-6-6.9-6.6-13.1V228.47M497.59,319.1l-3.35-.09c-15-1.23-26-6.19-37.23-16.85l-2.4-2.52c-10.75-12.47-16.59-25-19.55-41.65-2.11-15.75-1.28-30.37,3.44-45.5l1.22-3.34c6.15-14.73,14.8-25.94,27.52-34.66l2.71-1.61C485,165,500.72,164,516.73,169.05l2.94,1.11c16.91,7.7,28.67,21.38,36.08,39.19a95,95,0,0,1,5.85,33.38v59.63c-.26,7.57-2.55,13.34-9.55,16.08a15,15,0,0,1-11.49-1.11c-5.19-3.7-6.63-8.5-6.82-15V242.51c0-16.3-7.3-31-20.68-39.16a32,32,0,0,0-27.62-1.58c-14,6.44-22,20.29-23.51,36.25-.64,11.87,1.46,21.89,7.87,31.73,6.41,8.91,13.66,14.26,24.2,15.75,5.11.41,8.6,0,12.84,3.68,4.81,5,5.58,11.61,4.27,18.48-2,7.36-6.36,11.1-13.53,11.46M386.07,214.56l-37.25,39.87c-5.46,5.3-10.8,7.19-17.89,3.41-6.31-4.42-9.35-10.72-8.21-18.28a20.41,20.41,0,0,1,4.95-8.74c8.94-9.83,18.05-19.76,27.06-29.65-9.61-1.3-17-2.84-26.61-.6-11.58,3.48-19.59,11-25.06,21.48a47.16,47.16,0,0,0,4.29,47.67c5.3,6.68,10.81,11.24,18.94,14.17,13.3,4,57,.22,70.5,2.11,10.47,2.42,13,12.35,11.08,21.7-2.17,7.4-6.7,11-14.59,11.42h-55.4a81.17,81.17,0,0,1-14.32-1.4c-19.81-4.6-33.46-15.83-44.2-32.5l-1.81-3.13c-11.16-21.85-12.31-46.54-4.47-69.6l1.34-3.34c6.73-14.68,16.21-26,30.12-34.65l3-1.62C324.12,165,341.41,164,359,169.22a70.54,70.54,0,0,1,21.35,12.13C389,189,396.43,196.08,391.45,208a23.5,23.5,0,0,1-5.39,6.58M192.41,229.77V302.4c-.25,7.57-2.45,13.31-9.06,16a13.56,13.56,0,0,1-10.93-1.14c-4.95-3.64-6.3-8.47-6.51-14.91V229.91a100.06,100.06,0,0,1,1.43-16.21c4.25-20,14.86-36.18,31.79-44.29a44.73,44.73,0,0,1,19-3.45c7.85,1.38,11.39,7.92,11.65,16.47-.35,6.13-.86,9.66-5,13.79-3.83,2.42-7,3-11.29,3.63-8.56,2.22-14.11,6.92-18.35,15.7a42.56,42.56,0,0,0-2.65,14.2M63.56,206.82c-1.15,0-2.32.13-3.5.19-18.63,2.45-30.2,18.31-32,36.38a58.26,58.26,0,0,0,.49,12.08C31.67,272,43,285.33,60.07,287.61a38.28,38.28,0,0,0,14.17-1.48c16.19-5.91,25.53-21.68,25.53-38.63v-117c.31-6.94,2.73-12.39,9.5-15,9.12-2.33,16.33,2.19,18.12,11.41.13,1.22.21,2.4.26,3.57v117A90.78,90.78,0,0,1,125,268.78c-5.64,19.78-18,36-36.59,45.18l-2.86,1.2a63.09,63.09,0,0,1-40.82,1l-2.91-1C27,308.78,16.7,298.42,8.72,284.44l-1.5-3c-8.81-19.83-9.41-41.48-2.61-62l1.22-3.14c6.12-13.84,14.8-24.47,27.52-32.68a58.79,58.79,0,0,1,32-8C76,177.15,79.16,186.73,77.2,196.37c-2,6.89-6.51,10.21-13.59,10.47m1310.92,21.59c-.47-12.16-5.54-21.57-16.49-27.44-8.93-3.52-16.63-2.76-24.83,2.34a47.54,47.54,0,0,0-7.6,8.11v88.1c-.26,7.4-2.72,13-10.09,15.73a17.23,17.23,0,0,1-12.17-1.1c-5.52-3.58-7-8.3-7.25-14.62V228.42c-.45-11.36-4.8-19.82-14.39-26.22-7.78-4.12-14.77-4.39-23-1.3-9.19,4.76-14,11.68-16.13,21.66-.26,2-.39,3.91-.49,5.87v71.1c0,11.55-7.82,18.53-19.4,15.74-7.4-2.72-9.8-8.27-10.11-15.73V228.6a85.89,85.89,0,0,1,1.6-15.89c4.72-19.53,16.56-35.44,35.43-43.34,14.81-5.19,29.45-4.59,43.47,2.34,6,3.32,10.34,7,15.41,11.52l4.7-4.27c14.51-11.94,30.5-15.57,48.88-11.26l2.63.77c16.21,5.78,27.25,17.41,34.25,32.89a73.83,73.83,0,0,1,5.11,27.25v75.31c-.58,6.16-1.6,9.19-6.64,13-6.77,3.26-12.38,3-18.45-1.53-3.4-3.88-4-6.42-4.43-11.46V228.45"/></svg>