<svg id="Layer_1" data-name="Layer 1" xmlns="http://www.w3.org/2000/svg" viewBox="0 0 1246.73 207.2"><defs><style>.cls-1,.cls-2{fill:#1a439b;}.cls-2{fill-rule:evenodd;}</style></defs><path class="cls-1" d="M591.63,507.55h6V500q0-11.78,3-18.74a19.07,19.07,0,0,1,10.11-10.12C615.45,469,622,468,630.23,468c14.7,0,22,3.55,22,10.8a8.33,8.33,0,0,1-2.32,5.92,7,7,0,0,1-5.39,2.49,34.52,34.52,0,0,1-5.11-.55,41.07,41.07,0,0,0-6-.58c-4.51,0-7.41,1.36-8.76,4.06s-1.88,6.44-1.88,11.43v6h6.13c9.57,0,14.31,2.83,14.31,8.64,0,4.06-1.21,6.67-3.77,7.79s-6.06,1.65-10.54,1.65h-6.13V592.1c0,4.95-1.16,8.71-3.59,11.28a12.19,12.19,0,0,1-18,0c-2.34-2.57-3.53-6.33-3.53-11.28V525.63h-6.89c-3.76,0-6.61-.81-8.64-2.51a8.11,8.11,0,0,1-3-6.6c0-6,4.2-9,12.6-9Z" transform="translate(-336.63 -437.36)"/><path class="cls-1" d="M673.76,571.14v21c0,5.07-1.28,8.88-3.62,11.42a11.82,11.82,0,0,1-9.07,3.82,11.18,11.18,0,0,1-8.94-3.9c-2.31-2.55-3.49-6.31-3.49-11.34V522.24q0-16.94,12.2-16.94c4.19,0,7.17,1.31,9,3.94s2.84,6.55,3.07,11.71a43.92,43.92,0,0,1,9.18-11.71c3.2-2.63,7.37-3.94,12.66-3.94a32.26,32.26,0,0,1,15.34,3.94c5,2.67,7.45,6.19,7.45,10.49a10.06,10.06,0,0,1-3.14,7.59,9.86,9.86,0,0,1-6.84,3,30.37,30.37,0,0,1-6.7-1.73,32.35,32.35,0,0,0-9.33-1.66,13.64,13.64,0,0,0-9,2.87,18.89,18.89,0,0,0-5.48,8.6A65,65,0,0,0,674.46,552c-.48,5.28-.7,11.65-.7,19.19Z" transform="translate(-336.63 -437.36)"/><path class="cls-1" d="M740,548.23h45.51c-.62-8.57-2.91-15-6.93-19.24s-9.28-6.35-15.87-6.35a20.09,20.09,0,0,0-15.4,6.42c-4,4.37-6.45,10.74-7.31,19.17Zm49.1,14.25H740a33.56,33.56,0,0,0,3.45,15.09,24.25,24.25,0,0,0,8.93,9.84,23.54,23.54,0,0,0,12.27,3.3,28.76,28.76,0,0,0,8.23-1.09,25.21,25.21,0,0,0,7.21-3.3,52,52,0,0,0,6.42-4.82c2-1.72,4.51-4,7.63-7a8.4,8.4,0,0,1,5.5-1.66,9,9,0,0,1,6.29,2.16,7.44,7.44,0,0,1,2.37,6c0,2.27-.87,4.89-2.6,7.94a32,32,0,0,1-8.08,8.73,46.8,46.8,0,0,1-13.53,7,58.45,58.45,0,0,1-18.69,2.74c-16.17,0-28.68-4.56-37.6-13.78s-13.45-21.65-13.45-37.39a61.69,61.69,0,0,1,3.36-20.68,44.51,44.51,0,0,1,9.66-16.34A41.69,41.69,0,0,1,743,508.75a56.36,56.36,0,0,1,20.59-3.61c9.79,0,18.2,2.05,25.22,6.21a40.62,40.62,0,0,1,15.75,16,42.31,42.31,0,0,1,5.25,20.08c0,6.25-1.82,10.36-5.44,12.22s-8.68,2.81-15.23,2.81Z" transform="translate(-336.63 -437.36)"/><path class="cls-1" d="M844.39,548.23h45.46c-.6-8.57-2.93-15-6.91-19.24s-9.3-6.35-15.89-6.35a20.13,20.13,0,0,0-15.4,6.42c-4,4.37-6.46,10.74-7.26,19.17Zm49.07,14.25H844.39a33.16,33.16,0,0,0,3.42,15.09,24.07,24.07,0,0,0,8.91,9.84,23.51,23.51,0,0,0,12.29,3.3,28.33,28.33,0,0,0,8.19-1.09,25.25,25.25,0,0,0,7.24-3.3,52.83,52.83,0,0,0,6.43-4.82c1.92-1.72,4.51-4,7.62-7a8.39,8.39,0,0,1,5.51-1.66,9,9,0,0,1,6.3,2.16,7.54,7.54,0,0,1,2.33,6c0,2.27-.88,4.89-2.66,7.94a29.32,29.32,0,0,1-8,8.73,46.09,46.09,0,0,1-13.48,7,58.6,58.6,0,0,1-18.74,2.74c-16.11,0-28.63-4.56-37.6-13.78s-13.42-21.65-13.42-37.39A61.94,61.94,0,0,1,822,535.49a45.14,45.14,0,0,1,9.63-16.34,42,42,0,0,1,15.64-10.4,56.42,56.42,0,0,1,20.58-3.61c9.77,0,18.17,2.05,25.29,6.21a40.73,40.73,0,0,1,15.69,16,42.81,42.81,0,0,1,5.27,20.08c0,6.25-1.84,10.36-5.44,12.22s-8.7,2.81-15.24,2.81Z" transform="translate(-336.63 -437.36)"/><path class="cls-1" d="M997.61,555.87a42.75,42.75,0,0,0-3.07-17,24.85,24.85,0,0,0-8.39-11,20,20,0,0,0-11.92-3.81,22.3,22.3,0,0,0-17.47,8.17c-4.77,5.46-7.16,13.47-7.16,24.1q0,14.92,7.1,23.32c4.73,5.5,10.53,8.29,17.53,8.29a20.6,20.6,0,0,0,11.6-3.62,24.61,24.61,0,0,0,8.54-10.92,43.14,43.14,0,0,0,3.24-17.55Zm-49.2-36.46v3c4.7-5.79,9.62-10.08,14.76-12.82a35.62,35.62,0,0,1,17.22-4.13,40.23,40.23,0,0,1,21.36,6A41.19,41.19,0,0,1,1017.11,529c3.79,7.68,5.69,16.72,5.69,27.21a67.5,67.5,0,0,1-3.24,21.29,48.2,48.2,0,0,1-9,16.23,39,39,0,0,1-30.18,13.65c-7.14,0-13.19-1.43-18-4.34s-9.51-7.1-14-12.64V628c0,11-4,16.54-12,16.54-4.74,0-7.81-1.39-9.4-4.24s-2.25-7-2.25-12.49V519.55c0-4.78,1-8.34,3.09-10.69a10.94,10.94,0,0,1,8.56-3.56,11.18,11.18,0,0,1,8.66,3.64c2.29,2.45,3.38,5.89,3.38,10.47Z" transform="translate(-336.63 -437.36)"/><path class="cls-1" d="M1060.48,519.55V592.1c0,5-1.2,8.79-3.59,11.34a11.67,11.67,0,0,1-9.09,3.9,11.37,11.37,0,0,1-9-4c-2.26-2.67-3.46-6.39-3.46-11.28V520.25c0-4.9,1.2-8.65,3.46-11.13a11.41,11.41,0,0,1,9-3.82,11.77,11.77,0,0,1,9.09,3.82c2.39,2.48,3.59,6,3.59,10.43ZM1048,493.6a13.37,13.37,0,0,1-8.92-3.17,11.5,11.5,0,0,1-3.76-9.09,11.26,11.26,0,0,1,3.85-8.78,12.78,12.78,0,0,1,8.83-3.49,13.14,13.14,0,0,1,8.66,3.13c2.51,2.12,3.78,5.15,3.78,9.14s-1.23,6.87-3.67,9a12.92,12.92,0,0,1-8.77,3.22Z" transform="translate(-336.63 -437.36)"/><path class="cls-1" d="M1141.37,595.9l-22.1-36.44-13.64,12.86v20c0,4.83-1.26,8.51-3.84,11.08a11.7,11.7,0,0,1-8.76,4c-3.88,0-6.9-1.25-9.11-3.9s-3.31-6.31-3.31-11.34v-107c0-5.53,1.09-9.78,3.2-12.67A10.76,10.76,0,0,1,1093,468a11.36,11.36,0,0,1,9.17,4c2.28,2.59,3.43,6.49,3.43,11.62v60.88l28.2-29.62a73.44,73.44,0,0,1,8-7.54,12,12,0,0,1,14.58,1,10.12,10.12,0,0,1,3.09,7.51c0,3.62-3.42,8.6-10.2,14.71L1136,542.69l25.71,40.48c1.87,3,3.28,5.27,4.1,6.85a9.66,9.66,0,0,1,1.27,4.46c0,4-1.09,7.1-3.3,9.44a11.33,11.33,0,0,1-8.59,3.42c-3,0-5.42-.77-7.08-2.49a61.52,61.52,0,0,1-6.73-9Z" transform="translate(-336.63 -437.36)"/><path class="cls-1" d="M1195.87,607.34a14.24,14.24,0,0,1-9.81-3.67c-2.74-2.42-4.14-5.88-4.14-10.32a13.31,13.31,0,0,1,4-9.63,13.06,13.06,0,0,1,9.72-4,13.88,13.88,0,0,1,9.92,3.95,13.26,13.26,0,0,1,4.09,9.7c0,4.4-1.4,7.8-4.09,10.26a13.87,13.87,0,0,1-9.67,3.73Z" transform="translate(-336.63 -437.36)"/><path class="cls-1" d="M1320.68,576.26a21.77,21.77,0,0,1-2.81,10,34.5,34.5,0,0,1-8.59,10.19,44.33,44.33,0,0,1-14.45,7.76,62,62,0,0,1-19.65,3q-23.29,0-36.37-13.58t-13-36.34c0-10.36,2-19.43,6-27.35A42.87,42.87,0,0,1,1249,511.6c7.53-4.34,16.58-6.46,27-6.46A54.84,54.84,0,0,1,1294,508a47.42,47.42,0,0,1,13.79,7.34,37,37,0,0,1,8.6,9.59,19.12,19.12,0,0,1,3,9.59,10,10,0,0,1-3.34,7.59,11.46,11.46,0,0,1-8.1,3.16,8.46,8.46,0,0,1-5.24-1.63,25.91,25.91,0,0,1-4.63-5.21c-3.08-4.67-6.25-8.16-9.63-10.46s-7.55-3.52-12.7-3.52a21.68,21.68,0,0,0-17.93,8.71c-4.52,5.76-6.81,13.74-6.81,23.73a46.37,46.37,0,0,0,1.77,13,28.75,28.75,0,0,0,5,10.13,22.16,22.16,0,0,0,8,6.31,23.47,23.47,0,0,0,10.3,2.21A23.23,23.23,0,0,0,1289,585a30.14,30.14,0,0,0,9.54-10.65,24.56,24.56,0,0,1,4.91-6.59,10.07,10.07,0,0,1,14.17,1.09,11.16,11.16,0,0,1,3.07,7.41Z" transform="translate(-336.63 -437.36)"/><path class="cls-1" d="M1403.74,556.35c0-10.24-2.26-18.16-6.76-23.88s-10.53-8.6-18.13-8.6a22.41,22.41,0,0,0-13,3.81,24.23,24.23,0,0,0-8.63,11.28,46.31,46.31,0,0,0-3,17.39,45.34,45.34,0,0,0,3,17.16,24.72,24.72,0,0,0,8.58,11.27,22.41,22.41,0,0,0,13.08,3.93q11.4,0,18.13-8.61t6.76-23.75Zm25.2,0a61.51,61.51,0,0,1-3.43,20.67,45.69,45.69,0,0,1-10.17,16.23,44.05,44.05,0,0,1-15.78,10.45,56.16,56.16,0,0,1-20.71,3.64,54.31,54.31,0,0,1-20.51-3.67,45.61,45.61,0,0,1-15.75-10.51A47.06,47.06,0,0,1,1332.43,577a61.22,61.22,0,0,1-3.4-20.63,62.17,62.17,0,0,1,3.47-20.91,45.14,45.14,0,0,1,10.06-16.15,44.44,44.44,0,0,1,15.78-10.35,59.86,59.86,0,0,1,41.22,0,44.34,44.34,0,0,1,26,26.64,61,61,0,0,1,3.41,20.73Z" transform="translate(-336.63 -437.36)"/><path class="cls-1" d="M1524.63,558.19v33.36c0,5.27-1.15,9.16-3.56,11.83a12.16,12.16,0,0,1-9.47,4,11.59,11.59,0,0,1-9.2-4c-2.38-2.67-3.59-6.56-3.59-11.83v-40a130.74,130.74,0,0,0-.62-14.77,16.66,16.66,0,0,0-3.5-8.56c-1.91-2.23-4.93-3.36-9-3.36-8.25,0-13.62,2.81-16.22,8.52s-3.93,13.7-3.93,24.28v33.88c0,5.18-1.19,9.13-3.51,11.79a11.87,11.87,0,0,1-9.33,4,12,12,0,0,1-9.36-4c-2.43-2.66-3.65-6.61-3.65-11.79V519.73c0-4.67,1.13-8.3,3.26-10.75a11.07,11.07,0,0,1,8.61-3.68,11.92,11.92,0,0,1,8.63,3.45q3.4,3.42,3.41,9.52v2.38c4.4-5.16,9-9,14-11.45a36.49,36.49,0,0,1,16.57-3.73,33.2,33.2,0,0,1,16.24,3.77,30.3,30.3,0,0,1,11.22,11.41,44.79,44.79,0,0,1,13.62-11.45,35.22,35.22,0,0,1,16.09-3.73,37,37,0,0,1,17.76,4.09,26.07,26.07,0,0,1,11.09,11.51c2.16,4.59,3.2,11.74,3.2,21.48v49c0,5.27-1.2,9.16-3.56,11.83a12.09,12.09,0,0,1-9.47,4,12,12,0,0,1-9.33-4c-2.43-2.66-3.62-6.61-3.62-11.79V549.32a98.43,98.43,0,0,0-.7-13,15,15,0,0,0-3.7-8.16c-2-2.19-5.13-3.32-9.22-3.32a17.11,17.11,0,0,0-9.41,3,20.43,20.43,0,0,0-7,7.84c-1.8,4.28-2.75,11.75-2.75,22.49Z" transform="translate(-336.63 -437.36)"/><path class="cls-2" d="M417.87,616.12s-13.7-2.19-27.07-16.8C377.34,584.56,375.08,569,375.08,569s17.07,4,29.33,5.38a237.59,237.59,0,0,0,50.25.08,196.72,196.72,0,0,0,34.73-6.89c25.36-6.11,49.75-22.52,49.75-22.52s3.1,19.05-11.23,40.2c-5.61,8.25-16.74,17.73-29.57,24.27-43.93,18.74-80.47,6.63-80.47,6.63Z" transform="translate(-336.63 -437.36)"/><path class="cls-2" d="M496.79,530.24a16.43,16.43,0,1,1,15.47-17.5,16.53,16.53,0,0,1-15.47,17.5ZM422.92,548.8a26.08,26.08,0,1,1,24.57-27.75,26.08,26.08,0,0,1-24.57,27.75Zm98.67-41c-4.7-5.72-20.43-32.65-52.24-36.58-8.13-1-51.15.72-77,24.58a64.94,64.94,0,0,0-20,35.36c-3.4,16.54,2.14,35.18,2.14,35.18s28.62,6,50.18,5.41c34.19-.83,51.41-3.87,69.28-9.27a169.17,169.17,0,0,0,45-21.32s-12.63-27.61-17.38-33.36Z" transform="translate(-336.63 -437.36)"/><path class="cls-2" d="M509.23,489.14l8.32-10s11.47,5.67,18.86,16.28a179.49,179.49,0,0,1,12.12,20.29l-13.71,8.34a92.3,92.3,0,0,0-10.63-18.43,190.09,190.09,0,0,0-15-16.51Z" transform="translate(-336.63 -437.36)"/><path class="cls-2" d="M535.32,496.08c2.15-1.27,5.77-1.5,5.54-4.52s-2.2-9,3.79-11.06,2.64,1.79.55,4.42-1.38,4.26-1.13,8.12-2.47,5.14-6.54,7-4.38-2.72-2.21-4Z" transform="translate(-336.63 -437.36)"/><path class="cls-2" d="M382.89,502.2s-9.61,11.18-12.07,21.27-1.93,22.33-1.93,22.33l-14.24-4.91s-.81-14,5.66-25.31c7.2-12.58,16.43-18.18,16.43-18.18l6.15,4.8Z" transform="translate(-336.63 -437.36)"/><path class="cls-2" d="M361.94,514.91c-2.32-1.5-2.54-5.1-4.37-7.47s-2.29-.95-6.48-.95-4.29-2-5.46-3-1.77,3.18-1.77,3.18.77,3.56,5.27,3.82,4.34-1.94,6.26,2.08a23.33,23.33,0,0,0,5.73,7.13s3.16-3.25.82-4.78Z" transform="translate(-336.63 -437.36)"/><path class="cls-2" d="M437.54,461.86c23.36-5.85,38,.88,38,.88l-1.25,6.73s-17.06-1.13-30.61.88S424,476.58,424,476.58L421,469.87a44,44,0,0,1,16.51-8Z" transform="translate(-336.63 -437.36)"/><polygon class="cls-2" points="107.9 14.91 111.2 13.72 115.53 25.35 112.27 26.6 107.9 14.91 107.9 14.91"/><path class="cls-2" d="M547.46,473.92a6,6,0,1,1-5.59,6.36,6,6,0,0,1,5.59-6.36Z" transform="translate(-336.63 -437.36)"/><path class="cls-2" d="M342.26,496.51a5.93,5.93,0,1,1-5.62,6.32,6,6,0,0,1,5.62-6.32Z" transform="translate(-336.63 -437.36)"/><path class="cls-2" d="M447.39,437.37a9.48,9.48,0,1,1,1.17,18.93,9.48,9.48,0,1,1-1.17-18.93Z" transform="translate(-336.63 -437.36)"/></svg>