<svg id="Layer_1" data-name="Layer 1" xmlns="http://www.w3.org/2000/svg" viewBox="0 0 243.57 42.13"><path d="M56.88,151.93c.09-3.44,1.9-5.44,4.76-5.44s4.67,2,4.76,5.44Zm14.9,4v-2.42c0-6-3.58-11.43-10.05-11.38C55,142.11,51,147.1,51,155s4,12.89,10.42,12.89c4.76,0,8.07-1.53,10.33-5.06l-4.25-2.68c-1.47,1.72-2.75,3-5.52,3s-5-2-5.13-7.17Z" transform="translate(-26.93 -134.35)"/><path d="M106.39,171.44a11,11,0,0,0,2.46.19c2,0,3.17-.57,3.88-1.95a6.55,6.55,0,0,0,1-2.92,12.49,12.49,0,0,0-.75-3l-6.58-21.23h5.91l4.07,15.3h.09l4.21-15.3h5.87l-7.76,24.91c-2.6,7.11-4.68,9-9.5,9a17.8,17.8,0,0,1-2.85-.19Z" transform="translate(-26.93 -134.35)"/><path d="M76,162.11c0,3.55,1.7,5.74,6,5.74a38.19,38.19,0,0,0,4.63-.38v-4.88a12.13,12.13,0,0,1-2.7.49c-1.46,0-2.12-.39-2.12-1.73v-14h11v14.77c0,3.55,1.69,5.74,6,5.74a38.19,38.19,0,0,0,4.64-.38v-4.88a12.13,12.13,0,0,1-2.7.49c-1.47,0-2.12-.39-2.12-1.73v-14h4.82v-4.77H98.66v-8.22H92.81v8.22h-11v-8.22H76Z" transform="translate(-26.93 -134.35)"/><rect x="104.24" y="8.18" width="2.84" height="24.83"/><rect x="104.24" y="0.09" width="2.84" height="4.21"/><path d="M140.18,167.36V142.53H143v3.73c2.51-2.67,4.36-4.23,8.2-4.23a6.08,6.08,0,0,1,6,4.52c2.23-2.63,4.59-4.52,8.15-4.52,4.3,0,6.48,2.37,6.48,6.72v18.61H169v-18.9c0-2.77-1.51-4.16-4.26-4.16-2.17,0-5.78,2.34-7.3,4.74v18.32h-2.83v-18.9c0-2.77-1.52-4.16-4.27-4.16-2.18,0-5.78,2.34-7.29,4.74v18.32Z" transform="translate(-26.93 -134.35)"/><path d="M192.08,161.48c-2.47,2.53-5.75,4.11-8.4,4.11s-4.41-1.53-4.41-4.25c0-3.16,1.51-5.5,12.81-8Zm3.22,5.88a26.76,26.76,0,0,1-.38-4.52v-13c0-5.52-2.65-7.79-8.26-7.79-4,0-7,1.61-9.15,5.64l1.89,1.15c1.81-2.88,4.23-4.52,7.17-4.52,4.22,0,5.65,1.68,5.65,5V151c-10.3,2.29-15.8,3.54-15.8,10.33,0,4.14,2.94,6.5,6.78,6.5s6-1.14,9-3.47l.38,3Z" transform="translate(-26.93 -134.35)"/><path d="M226.41,152.76c.06-3.32,2.18-8.51,7.2-8.46,4.31,0,6.53,3.32,7.1,8.46ZM243.55,155c0-7.7-3.17-13-9.85-13-6.24,0-10.12,5.2-10.12,12.91,0,8.78,4.06,12.92,10.51,12.92,4.68,0,7.09-1.65,9.74-6.06l-2.31-1.25c-2.47,3.94-4,5-7.2,5-5.59,0-7.91-4.89-7.91-10.56Z" transform="translate(-26.93 -134.35)"/><path d="M249,161.37c2.32,3.36,4.41,4.22,7.63,4.22s5.5-2.06,5.5-4.75c0-7.24-14.5-3.16-14.5-12,0-4.7,3.65-6.78,7.81-6.78s6.74,1.61,8.49,4.48L261.71,148c-1.67-2.3-3.47-3.74-6.41-3.74-2.75,0-4.89,1.34-4.89,4.36,0,6.09,14.51,2.5,14.51,12.18,0,4.47-4.07,7-8.53,7a10.93,10.93,0,0,1-9.52-5Z" transform="translate(-26.93 -134.35)"/><path d="M41.67,150.7a4.14,4.14,0,1,1-4-4.12,4,4,0,0,1,4,4.12M27.16,168.88a5.37,5.37,0,0,0-.22,1.81c.18,3.91,4.32,5.76,10.92,5.76,7.84,0,11.38-3.82,11.38-7.35,0-9.94-16.15-4.49-16.15-8.5,0-1.44,2-1.54,4.57-1.54,6.17,0,9.28-3.33,9.28-8a7.43,7.43,0,0,0-1.32-4.41c.89-.57,2.41-.57,3.78-.57v-4c-2.79-.1-4.64.66-5.77,2.18a9.79,9.79,0,0,0-6-2.18c-6.39,0-9.7,4.28-9.7,8.64,0,3,1.61,4.92,3.64,6.58-1.09.33-3.83,2.15-3.83,4.53,0,3.24,4.31,4.49,9.71,4.82,4.38.28,6.52,1.4,6.52,3.11,0,1.12-1.35,2.67-5.12,2.78-6.12.17-6.78-1.66-6.39-3.55Z" transform="translate(-26.93 -134.35)"/><path d="M210.06,165.53c7.36,0,9,2,9,4.06,0,2.57-2.65,4.24-8.77,4.24-5.1,0-7.46-1.67-7.46-4.1,0-2.14,1.7-4.2,7.27-4.2m11.65-23.92a7.13,7.13,0,0,0-5.14,2.2,9.74,9.74,0,0,0-5.71-1.72c-5.94,0-9.72,3.48-9.72,8.91a7.87,7.87,0,0,0,3.54,6.48,4.66,4.66,0,0,0-3.67,4.2c0,2.09,1.45,2.86,3.25,3.24V165c-3.45,1.29-4.3,3.1-4.3,5.24,0,3,2.27,5.86,10.71,5.86s11.18-3.09,11.18-6.71c0-4.06-3.07-6.44-10.43-6.44-6.64,0-7.59-.71-7.59-2.14,0-.91.71-1.81,2.26-2.39a11.31,11.31,0,0,0,4,.77c5.18,0,9.47-2.57,9.47-8.68a7.57,7.57,0,0,0-1.73-5.19c1-1,2.63-1.14,3.91-1.14ZM204,150.72c0-3.86,2.41-6.35,6.37-6.35s6.37,2,6.37,6.35-2.41,6.19-6.37,6.19c-3.45,0-6.37-1.91-6.37-6.19" transform="translate(-26.93 -134.35)"/><path d="M270.5,140.27a2.89,2.89,0,1,1-2.88-2.92,2.9,2.9,0,0,1,2.88,2.92m-.47,0a2.42,2.42,0,1,0-2.42,2.53,2.43,2.43,0,0,0,2.42-2.53M267,142h-.46v-3.47h1.31c.77,0,1.12.34,1.12,1a.94.94,0,0,1-.8,1l1,1.54h-.53l-.93-1.54H267Zm.54-1.93c.45,0,1,0,1-.59s-.39-.56-.75-.56H267v1.15Z" transform="translate(-26.93 -134.35)"/></svg>