<svg id="Capa_1" data-name="Capa 1" xmlns="http://www.w3.org/2000/svg" viewBox="0 0 509.54 71.7"><defs><style>.cls-1{fill:#3b3d41;}.cls-2{fill:#d00e14;}</style></defs><path class="cls-1" d="M331.64,287.66c-.78-.13-3.35-.56-4.11-.7-4.07-.73-7.55-1.68-7.55-5.78,0-3.51,3.69-5.15,8.27-5.15a32,32,0,0,1,13.5,3.43l3.74-9.87a36.09,36.09,0,0,0-17.12-4c-8.79,0-19.52,4.61-19.52,16.09,0,10.27,7.34,13.57,14.42,14.81,1,.18,4,.71,4.92.86,4.76.81,7.37,2.58,7.37,5.69,0,3.95-3.71,5.8-9.33,5.8a36.48,36.48,0,0,1-15.8-3.31l-4.14,9.66c1.29.67,7.43,4.13,19.41,4.13,11.63,0,21-5.77,21-16.48-.09-10-6.8-13.76-15-15.18" transform="translate(-28.7 -247.61)"/><path class="cls-1" d="M367.14,247.61l-11,6.09v12.89h-5.8v10.53h5.8v22.75c0,9.72,4,18.45,18.08,18.45h4.41V307.78H377c-6.93,0-9.84-4-9.84-9.42V277.12h12.64V266.59H367.14Z" transform="translate(-28.7 -247.61)"/><path class="cls-1" d="M453.12,276.29c4.29,0,8.69,1.95,10,6.68l10-3.8c-2.8-9.88-12-13.58-20.08-13.58-14.52,0-20.37,9-20.37,17.77v18.18c0,8.76,5.85,17.78,20.37,17.78,8.1,0,17.28-3.7,20.08-13.59l-10-3.79c-1.32,4.72-5.72,6.68-10,6.68-7.48,0-9.46-4.09-9.46-8.76V285c0-4.66,2-8.75,9.46-8.75" transform="translate(-28.7 -247.61)"/><polygon class="cls-1" points="471.48 42.21 492.05 18.98 478.52 18.98 460.82 39.23 460.82 0 449.81 0 449.81 70.71 460.82 70.71 460.82 54.24 464.43 50.16 480.19 70.71 493.4 70.71 471.48 42.21"/><polygon class="cls-1" points="502.29 18.98 502.29 20.14 500.13 20.14 500.13 26.09 498.97 26.09 498.97 20.14 496.81 20.14 496.81 18.98 502.29 18.98"/><polygon class="cls-1" points="504.16 26.09 503 26.09 503 18.98 504.3 18.98 506.26 23.61 508.23 18.98 509.54 18.98 509.54 26.09 508.37 26.09 508.37 22.83 508.59 20.9 508.49 20.9 507.89 22.58 506.73 25.11 505.81 25.11 504.64 22.58 504.05 20.88 503.94 20.88 504.16 22.84 504.16 26.09"/><path class="cls-2" d="M410.56,277.88H399.12a3.29,3.29,0,0,0-3.29,3.29v12.42H384.54V281.17a14.57,14.57,0,0,1,14.58-14.58h11.44Z" transform="translate(-28.7 -247.61)"/><path class="cls-2" d="M401.25,307H412.7a3.29,3.29,0,0,0,3.29-3.3V291.32h11.29v12.41a14.59,14.59,0,0,1-14.58,14.59H401.25Z" transform="translate(-28.7 -247.61)"/><path class="cls-2" d="M214.63,266.59h12.63v10.53H214.63v21.24c0,5.43,2.9,9.42,9.82,9.42h1.66v10.54H221.7c-14.1,0-18.08-8.73-18.08-18.45V277.12H185.1v21.24c0,5.43,2.91,9.42,9.83,9.42h1.65v10.54h-4.41c-14.09,0-18.08-8.73-18.08-18.45V277.12h-5.58V266.59h5.58V253.7l11-6.09v19h18.52V253.7l11-6.09Z" transform="translate(-28.7 -247.61)"/><path class="cls-2" d="M95.82,265.59a26.24,26.24,0,0,0-10.19,2v-20h-11v70.71h11V277.9a16.6,16.6,0,0,1,8.5-2.22c6.92,0,10.18,3.85,10.18,9.52v33.12h11V283.69c0-10.44-7.56-18.1-19.48-18.1" transform="translate(-28.7 -247.61)"/><path class="cls-2" d="M151.6,308a15.86,15.86,0,0,1-7.37,1.78c-8.21,0-11.3-4.19-11.3-10V266.59h-11v33.46c0,13,7.52,19.27,21,19.27A51.47,51.47,0,0,0,162.6,315V266.59h-11Z" transform="translate(-28.7 -247.61)"/><path class="cls-2" d="M54,287.66c-.76-.13-3.34-.56-4.1-.7-4.06-.73-7.56-1.68-7.56-5.78,0-3.51,3.69-5.15,8.28-5.15a32,32,0,0,1,13.49,3.43l3.74-9.87a36,36,0,0,0-17.12-4c-8.78,0-19.51,4.61-19.51,16.09,0,10.27,7.33,13.57,14.41,14.81l4.94.86c4.75.81,7.35,2.58,7.35,5.69,0,3.95-3.7,5.8-9.31,5.8a36.41,36.41,0,0,1-15.81-3.31l-4.14,9.66c1.29.67,7.42,4.13,19.41,4.13,11.63,0,21-5.77,21-16.48-.1-10-6.8-13.76-15-15.18" transform="translate(-28.7 -247.61)"/><path class="cls-2" d="M272.77,283.36c0-9.46-7.21-17.77-20.18-17.77-14.72,0-20.37,9.19-20.37,17.77v17.18c0,11.88,7.6,18.78,20.37,18.78,11.27,0,17.12-6.52,18.86-10.43l-9.29-5.58c-.8,2.3-4.48,5.52-9.49,5.52-6.81,0-9.43-3.8-9.43-8.55l0-2.84h29.57Zm-11,5.17H243.2v-3.76c0-4.2,2.11-8.7,9.34-8.7,7,0,9.22,4.39,9.22,8.49Z" transform="translate(-28.7 -247.61)"/><path class="cls-2" d="M279.81,283.38v34.94h11v-34c0-3,1.69-8,9.76-8a41.74,41.74,0,0,1,5.05.53V266.14a28.57,28.57,0,0,0-5.62-.55c-14,0-20.19,8.77-20.19,17.79" transform="translate(-28.7 -247.61)"/></svg>