<svg id="Layer_1" data-name="Layer 1" xmlns="http://www.w3.org/2000/svg" viewBox="0 0 1143.23 298.92"><defs><style>.cls-1{fill:#ff9100;fill-rule:evenodd;}</style></defs><path class="cls-1" d="M571.07,391.07c6.17,0,11.83,5.66,11.83,5.66L480,616.42c-11.32,0-38.59,1.55-45.28,1.55-6.17,0-11.83-5.66-11.83-5.66l-35.5-219.7c21.61,0,48.36-1.54,56.08-1.54,6.17,0,11.84,5.66,11.84,5.66l10.8,107.53c1,9.26,1,22.12.51,35.5,3.6-14.92,7.2-28.82,10.8-38.07l42.71-108.56c20.07-.52,43.73-2.06,50.94-2.06Zm935.37,214.55c-9.26,56.08-47.85,84.37-96.22,84.37-30.87,0-54-16.46-54-35,0-12.35,10.29-18,10.29-18s10.81,9.78,31.39,9.78c19.55,0,45.79-8.24,50.43-37.57l3.59-22.63c-12.86,19-30.36,34-52.48,34-24.7,0-35.5-20.07-29.33-61.23l7.21-44.25c4.11-27.27,5.65-49.39,5.65-49.39,17.5-3.1,40.65-11.32,48.88-11.32,6.18,0,12.35,5.14,12.35,5.14l-8.74,55.57L1427.19,566c-.51,4.63,0,7.2,4.63,7.2,20.58,0,31.91-58.65,31.91-58.65,4.11-27.26,5.66-49.39,5.66-49.39,17.49-3.09,40.64-11.32,48.88-11.32,6.16,0,12.34,5.15,12.34,5.15l-8.74,55.57-15.43,91.07Zm-166.18-46.31a41.93,41.93,0,0,1,11.83,29.32c0,24.71-20.58,30.87-38.08,30.87-22.63,0-39.1-10.8-56.59-16.46-4.62,5.66-9.77,11.32-13.89,16.46,0,0-25.72-.51-25.72-18,0-21.1,35.5-57.62,73.57-98.78a57.59,57.59,0,0,0-12.34-1.55c-21.62,0-29.85,10.81-29.85,10.81s-11.31-12.86-10.29-29.33c1-23.15,23.15-29.32,40.65-29.32,18.52,0,31.89,7.2,45.28,12.86l10.8-12.86s25.73,1,25.73,18c0,20.58-34.48,56.09-71.52,95.71,7.72,2.05,14.92,4.11,22.13,4.11,19.53.51,28.29-11.84,28.29-11.84Zm-116.8-59.68c0,23.67-13.38,39.62-46.82,46.83l-35,7.2c2.57,14.92,12.35,22.12,27.78,22.12,19.56,0,32.42-14.41,32.42-14.41s9.78,5.67,9.78,16.47c0,20.06-30.87,41.67-66.38,41.67-36,0-59.68-22.63-59.68-61.22,0-44.25,31.39-105,88-105,30.87,0,49.91,18.52,49.91,46.3Zm-59.17,23.15c7.72-2.57,9.78-8.23,9.78-15.43,0-6.69-2.06-16.47-9.78-16.47-13.89,0-20.07,22.13-22.12,39.11l22.12-7.21Zm-83.35-23.15c0,23.67-13.38,39.62-46.82,46.83l-35,7.19c2.58,14.92,12.35,22.13,27.79,22.13,19.55,0,32.41-14.41,32.41-14.41s9.77,5.67,9.77,16.47c0,20.06-30.87,41.67-66.37,41.67-36,0-59.68-22.63-59.68-61.22,0-44.26,31.38-105,88-105,30.36,0,49.91,18.52,49.91,46.3Zm-59.17,23.15c7.72-2.57,9.78-8.23,9.78-15.43,0-6.69-2.06-16.47-9.78-16.47-13.89,0-20.07,22.13-22.13,39.11l22.13-7.21Zm-113.7-105c6.68,0,11.32,5.15,11.32,5.15l-5.15,33.44h35.5l-8.23,25.73c-2.57,8.23-6.69,12.86-14.92,12.86H908.07l-10.29,65.33c-1.55,10.81.51,15.44,7.71,15.44,6.69,0,12.87-4.12,12.87-4.12s9.76,5.67,9.76,16c0,15.95-22.62,31.89-52,31.89-30.87,0-43.22-18.52-38.08-51.45l11.85-73H830.37l8.24-26.76c2-6.69,7.72-11.83,14.92-11.83h9.26l11.31-30.87c14.41-3.09,27.28-7.72,34-7.72Zm-136.34,35.5c28.29,0,49.9,14.92,49.9,34.47,0,24.19-29.32,33.45-29.32,33.45s-8.76-26.76-28.3-26.76c-13.39,0-21.11,13.39-21.11,42.71,0,26.75,7.21,38.59,24.19,38.59a41.4,41.4,0,0,0,28.81-11.84s9.78,5.67,9.78,16.47c0,19-29.33,39.62-63.8,39.62-36.53,0-59.17-22.64-59.17-60.72-.51-45.79,31.9-106,89-106Zm-94.68,46.31c0,23.67-13.38,39.62-46.82,46.83l-35,7.19c2.57,14.92,12.35,22.13,27.78,22.13,19.55,0,32.41-14.41,32.41-14.41s9.78,5.66,9.78,16.46c0,20.07-30.87,41.68-66.37,41.68-36,0-59.68-22.64-59.68-61.22,0-44.26,31.38-105,88-105,30.86,0,49.9,18.52,49.9,46.3Zm-59.17,23.15c7.72-2.57,9.78-8.23,9.78-15.43,0-6.69-2.06-16.47-9.78-16.47-13.89,0-20.06,22.13-22.12,39.1l22.12-7.2Z" transform="translate(-387.39 -391.07)"/></svg>